<svg xmlns="http://www.w3.org/2000/svg" viewBox="0 0 403.11 592.06"><defs><style>.cls-1{isolation:isolate;}.cls-2,.cls-4,.cls-7{fill:#fff;stroke:#000;stroke-miterlimit:10;}.cls-3,.cls-4,.cls-5,.cls-7{mix-blend-mode:screen;}.cls-4,.cls-5{opacity:0.5;}.cls-6{mix-blend-mode:multiply;opacity:0.6;}</style></defs><g class="cls-1"><g id="Layer_2" data-name="Layer 2"><g id="Layer_1-2" data-name="Layer 1"><path class="cls-2" d="M79.62,579.6c18.77-.26,57.07.89,72.79,1.4a121.85,121.85,0,0,1,14.16-1.08c24-.32,79.73,1.66,79.73,1.66s12.78-1,34.78,3.27-18.57.45-50.71,3.07-76.51,5.57-65.67,2,5.32-3.39-21.24-2.09c-1.59.08-3,.12-4.19.12-31.67,2.53-71.87,5.08-61.52,1.63,10.84-3.61,5.34-3.4-21.23-2.09S55.68,579.92,79.62,579.6Z"/><path class="cls-2" d="M164.35,583.89s-12.62-8-20-7.24a30.59,30.59,0,0,1,15.37-.44s-12-9.83-21-10.13c10.73-.87,17.1,1.16,17.1,1.16s-7.83-8.7-17.68-9.56A39.36,39.36,0,0,1,161,561C155.49,554.49,144.9,546,144.9,546a18.24,18.24,0,0,1,14.22,6.66,120.82,120.82,0,0,0-10.59-18.53S163.17,539.44,170,557,164.35,583.89,164.35,583.89Z"/><path class="cls-2" d="M199.6,520.81,215.25,578l-13.85,1.85-5.4-7.94,1.42,8.81-4,.87-3.92-4.47-.85,6.1-13.38,2.12s-3-7.58-3.33-6.53a52.1,52.1,0,0,0-.4,6L158.45,583s-4.11-42.43-2.08-55.36S185.61,490.69,199.6,520.81Z"/><g class="cls-3"><path class="cls-2" d="M186.13,547.76c.51,3.14,2.44,5.49,4.3,5.25s2.93-3,2.41-6.16-2.41-5.5-4.27-5.24S185.64,544.59,186.13,547.76Z"/><path class="cls-2" d="M186.64,562.19c.23,1.43,1.22,2.5,2.21,2.36s1.61-1.4,1.37-2.84S189,559.2,188,559.34,186.41,560.74,186.64,562.19Z"/></g><path class="cls-4" d="M200.67,539.61s7.32,28.78,11.44,35.82l-7.68,2.33S197.24,557.23,200.67,539.61Z"/><path class="cls-2" d="M188.34,474.29l14.89,57.88-11.35,1.64-4.72-8.1,1.48,8.9-3.24.8-3.4-4.58-.48,6.14-10.93,1.91s-2.77-7.69-3-6.66-.12,6.08-.12,6.08l-10.86-2.15s-4.88-42.8-3.67-55.78S175.76,443.72,188.34,474.29Z"/><g class="cls-3"><path class="cls-2" d="M178.19,501.21c.53,3.18,2.19,5.59,3.71,5.36s2.33-3,1.78-6.15-2.18-5.6-3.69-5.38S177.66,498,178.19,501.21Z"/><path class="cls-2" d="M179.12,515.74c.24,1.46,1.11,2.54,1.9,2.43s1.27-1.4,1-2.85-1.09-2.55-1.9-2.42S178.87,514.28,179.12,515.74Z"/></g><path class="cls-4" d="M189.87,493.26s7,29.11,10.68,36.28l-6.23,2.21S187.69,510.93,189.87,493.26Z"/><path class="cls-2" d="M181.21,435.52s6.27,35.43,13.34,48.23l-10.5,3L180.23,482l.12,5.36-5.56.78-3.47-4.87-.31,7.2-8.1,1.42-2.69-7L159,491.4l-6.93-.54s-4.69-30.55,3.84-49.94S179.29,426.32,181.21,435.52Z"/><g class="cls-3"><path class="cls-2" d="M175,459.33c.34,2,1.73,3.54,3.11,3.33s2.22-2,1.88-4-1.74-3.52-3.1-3.32S174.62,457.31,175,459.33Z"/><path class="cls-2" d="M168.82,453.08c.24,1.46,1.26,2.53,2.26,2.38s1.62-1.44,1.38-2.91-1.25-2.52-2.25-2.38S168.58,451.61,168.82,453.08Z"/><path class="cls-2" d="M169.65,472.2a2.14,2.14,0,0,0,2.2,1.94,2,2,0,0,0,1.43-2.46,2.1,2.1,0,0,0-2.18-1.94A2,2,0,0,0,169.65,472.2Z"/></g><g class="cls-5"><path class="cls-2" d="M171.76,427.53a10.18,10.18,0,0,1,9.45,8s6.27,35.43,13.34,48.23l-10.5,3L180.23,482l.12,5.36-1.63.22C171.82,465.25,171.21,442,171.76,427.53Z"/></g><g class="cls-6"><path class="cls-2" d="M153.34,448.63a45.68,45.68,0,0,1,2.61-7.71c8.51-19.38,23.34-14.6,25.26-5.4,0,0,.65,3.76,1.79,9.26C178.26,447,168.77,450,153.34,448.63Z"/></g><path class="cls-4" d="M181.31,447.53s3.94,21.44,9.06,34l-5.15,1S178,463.86,181.31,447.53Z"/><path class="cls-2" d="M178.59,405.26s.79,21.14,7.37,33.28l-11.27,2.54-3.22-4.37.35,4.87-6.42,1.49-1-2.28-1,2.64-14.22,2.88s-1.89-21.71,2.92-39.07C152.05,407.24,173.79,396.22,178.59,405.26Z"/><g class="cls-5"><path class="cls-2" d="M178.59,405.26s.79,21.14,7.37,33.28l-11.27,2.54-3.22-4.37.35,4.87-1.76.4a79,79,0,0,1-.77-40.2C173.34,401.43,177,402.18,178.59,405.26Z"/></g><g class="cls-5"><path class="cls-2" d="M168.39,419.93a2.74,2.74,0,0,0,2.79,2.67,3,3,0,1,0-2.79-2.67Z"/><path class="cls-2" d="M168.89,429.52a1.69,1.69,0,0,0,1.83.81c.75-.13,1.18-.71.92-1.28a1.71,1.71,0,0,0-1.82-.8C169,428.37,168.64,429,168.89,429.52Z"/><path class="cls-2" d="M164.07,417.89a1.68,1.68,0,0,0,1.81.77c.76-.14,1.17-.69.94-1.24a1.69,1.69,0,0,0-1.82-.76C164.25,416.79,163.83,417.35,164.07,417.89Z"/></g><g class="cls-6"><path class="cls-2" d="M150.85,412.29c.36-1.72.76-3.41,1.2-5.05,0,0,21.74-11,26.54-2,0,0,.08,2.2.4,5.54A70.26,70.26,0,0,1,150.85,412.29Z"/></g><path class="cls-4" d="M177.88,412.94s.27,16.45,6.18,24.48l-7,1.56S170.26,423.31,177.88,412.94Z"/><path class="cls-2" d="M176.18,364.66s-.94,28.47,7.49,42l-12,1.18L169,402.88l.21,5.06L157,411.17l-1.06-5.67-3.25,6.63-7.92-.86s1.13-34.49,4.39-44.25S172.78,353.7,176.18,364.66Z"/><g class="cls-5"><path class="cls-2" d="M167.33,381.08c.37,2,1.73,3.4,3.08,3.22s2.13-1.91,1.77-3.88-1.72-3.38-3.08-3.21S167,379.12,167.33,381.08Z"/><path class="cls-2" d="M167.7,390.86c.17,1,.86,1.71,1.54,1.61s1.08-1,.9-2-.88-1.7-1.55-1.62S167.5,389.86,167.7,390.86Z"/></g><g class="cls-5"><path class="cls-2" d="M176.18,364.66s-.94,28.47,7.49,42l-12,1.18L169,402.88l.21,5.06-1.22.33c-6-16.47-2.5-38.67,0-50.1C171.83,358.84,175,360.89,176.18,364.66Z"/></g><g class="cls-6"><path class="cls-2" d="M147.83,372.72a37.81,37.81,0,0,1,1.3-5.7c3.25-9.75,23.65-13.32,27.05-2.36,0,0-.1,3.06.06,7.62A46.11,46.11,0,0,1,147.83,372.72Z"/></g><path class="cls-4" d="M175.07,378.66s1,16.95,5.46,26.9c-3.79.23-4.7.36-4.7.36S169.59,389.19,175.07,378.66Z"/><path class="cls-2" d="M149.13,367c1.22-3.68,4.87-6.46,9.13-7.95-3,9.63-7.12,28.2-3,47.78l-2.59,5.28-3.92-.44a76.9,76.9,0,0,1-3.27-15.18C146.14,385.9,147.29,372.53,149.13,367Z"/><path class="cls-2" d="M173.69,317l4.82,51.48-8.42.16-2.59-7.48.15,7.81-2.44.34-2-4.31-1,5.23-8.15.43s-1.2-6.92-1.46-6.05-.72,5.23-.72,5.23l-7.65-3s.88-37.39,3.12-48.44S167.73,289.33,173.69,317Z"/><g class="cls-3"><path class="cls-2" d="M163.54,339.07c.06,2.81,1,5.06,2.14,5s2-2.3,1.94-5.09-1-5.06-2.14-5S163.49,336.28,163.54,339.07Z"/><path class="cls-2" d="M162.7,351.71c0,1.27.54,2.29,1.14,2.28s1.07-1.06,1-2.33-.52-2.32-1.12-2.31S162.67,350.42,162.7,351.71Z"/></g><path class="cls-2" d="M148.39,315.19c2-4.8,6.13-9.92,10.61-12-1,6.58-5.81,41.58,2.46,67l-7.36.39s-1.2-6.92-1.46-6.05-.72,5.23-.72,5.23l-3.82-1.53C146.69,347.81,147.64,326.66,148.39,315.19Z"/><g class="cls-6"><path class="cls-2" d="M146.2,327.77a93.48,93.48,0,0,1,1.19-9.4c2.23-11.06,20.34-29,26.3-1.36l1.21,12.84C170,333.5,159.53,338.32,146.2,327.77Z"/></g><g class="cls-5"><path class="cls-2" d="M163.84,302.43c4,.57,7.71,4.62,9.85,14.58l4.82,51.48-8.42.16-2.59-7.48.15,7.81-.7.1C158.83,341.73,162.89,309.07,163.84,302.43Z"/></g><path class="cls-4" d="M172.84,333.51s2.11,25.84,4,32.41l-4.76,1.22S169.42,348.49,172.84,333.51Z"/><path class="cls-2" d="M171.57,263.45s1.08,41.13,4.92,56.71L168.64,322l-2.28-6-.44,6.08-4,.08-2-6-.93,8.13-6,.39-1.26-8.38-1.48,7.26-4.91-1.64s-.43-35.33,7.59-56.05S171.1,252.75,171.57,263.45Z"/><g class="cls-3"><path class="cls-2" d="M164.78,289.56c0,2.35.9,4.23,1.91,4.23s1.77-2,1.73-4.3-.89-4.25-1.91-4.24S164.72,287.2,164.78,289.56Z"/><path class="cls-2" d="M161,281.53c0,1.7.67,3.07,1.41,3.05s1.29-1.4,1.27-3.1-.66-3.05-1.39-3S160.94,279.85,161,281.53Z"/><path class="cls-2" d="M159.7,303.35c0,1.4.65,2.53,1.39,2.51s1.3-1.16,1.28-2.57-.64-2.52-1.37-2.52S159.68,301.94,159.7,303.35Z"/></g><path class="cls-2" d="M152.89,265.83c2.41-6.21,5-9.87,7.51-11.66-1.35,15-3.89,46.81-3.45,70.21l-4,.26-1.26-8.38-1.48,7.26-2.44-.81c0-18.33,2.84-41.94,4.76-55.95C152.65,266.46,152.78,266.15,152.89,265.83Z"/><g class="cls-5"><path class="cls-2" d="M165.57,253c3.35,1,5.77,5.36,6,10.45,0,0,1.08,41.13,4.92,56.71L168.64,322l-2.28-6-.44,6.08-1.18,0C161.94,295.76,163.77,269.35,165.57,253Z"/></g><g class="cls-6"><path class="cls-2" d="M150.25,274.18a83.63,83.63,0,0,1,2.64-8.35c8-20.7,18.21-13.08,18.68-2.38,0,0,.12,4.38.41,10.79C168.34,276.07,161.24,278,150.25,274.18Z"/></g><path class="cls-4" d="M170.48,277.09s.75,24.92,3.21,39.92l-3.78.36S166.48,295.14,170.48,277.09Z"/><path class="cls-2" d="M177.15,215s-4.53,32.52-3.32,52.79l-7.58,1-.95-7.52-1,7.56-4.33.65-.08-3.77-1.27,3.79-9.48.76s3.94-33.68,11.06-59C160.25,211.24,176.32,199.93,177.15,215Z"/><g class="cls-5"><path class="cls-2" d="M177.15,215s-4.53,32.52-3.32,52.79l-7.58,1-.95-7.52-1,7.56-1.18.17a285.86,285.86,0,0,1,9.06-61.7C174.81,207.78,176.87,209.85,177.15,215Z"/></g><g class="cls-5"><path class="cls-2" d="M167.36,234.82c-.28,2.53.21,4.67,1.09,4.8s1.81-1.86,2.1-4.4-.21-4.67-1.08-4.8S167.63,232.28,167.36,234.82Z"/><path class="cls-2" d="M165.39,249.62c0,1,.43,1.71.94,1.71s.9-.78.88-1.74-.44-1.69-.94-1.69S165.37,248.69,165.39,249.62Z"/><path class="cls-2" d="M165.16,230.61c0,.91.44,1.63.94,1.62s.9-.75.88-1.65-.45-1.64-.95-1.63S165.14,229.7,165.16,230.61Z"/></g><path class="cls-4" d="M174.9,226.54s-3.74,25.27-2,39l-4.7.61S167.72,240.47,174.9,226.54Z"/><path class="cls-2" d="M188.88,175.37s-9.76,28.87-9.44,45.08l-7.11-2.18.15-5.81L171,217.71l-7.88-.14,1.25-6.12-4,5.87-4.12-3.12s11.8-35,16.78-44S190.53,163.18,188.88,175.37Z"/><g class="cls-5"><path class="cls-2" d="M178.62,189.67c-.44,2.11-.15,4,.66,4.17s1.82-1.36,2.25-3.47.13-4-.67-4.17S179,187.57,178.62,189.67Z"/><path class="cls-2" d="M175.64,199.76c-.22,1.07-.07,2,.34,2.11s.91-.68,1.14-1.74.06-2-.35-2.12S175.88,198.71,175.64,199.76Z"/></g><g class="cls-5"><path class="cls-2" d="M188.88,175.37s-9.76,28.87-9.44,45.08l-7.11-2.18.15-5.81L171,217.71l-.79,0c2-18.54,11.15-40.27,16.26-51.27C188.32,168.18,189.44,171.18,188.88,175.37Z"/></g><path class="cls-4" d="M183.72,189.38s-5,17.61-5.68,29.07c-2.21-.82-2.73-1-2.73-1S177.23,198.61,183.72,189.38Z"/><path class="cls-2" d="M198.18,151.16s-6.93,20.41-9.2,29.71l-7.67-3.62,1.75-7.28-2.83,7-3.3-1.68.45-4.07-1.84,3.23-6.29-2.79,21-39.2S198.77,140.13,198.18,151.16Z"/><path class="cls-2" d="M182.87,170.81q-.41.75-.75,1.5l.94-2.34Z"/><path class="cls-4" d="M198.18,151.16s-6.93,20.41-9.2,29.71l-7.67-3.62,1.56-6.44a188,188,0,0,1,15-24.09A20.14,20.14,0,0,1,198.18,151.16Z"/><path class="cls-4" d="M184.41,162.41c-.69,2-.46,4,.53,4.37s2.34-.95,3-3,.46-4-.54-4.37S185.1,160.39,184.41,162.41Z"/><path class="cls-4" d="M195.44,155.9s-4.47,13.46-6.67,22.28l-2.51-.92S190.15,162.37,195.44,155.9Z"/><path class="cls-2" d="M236.3,542.32l8.77,38-10.28,1.11-3.58-5.31.63,5.84-3,.53-2.66-3-.91,4-9.91,1.29s-1.89-5.05-2.16-4.38a38,38,0,0,0-.57,4l-9.54-1.38s-1-28.13,1.11-36.67S227.43,522.26,236.3,542.32Z"/><g class="cls-3"><path class="cls-2" d="M225.13,560c.22,2.1,1.51,3.68,2.88,3.52s2.31-2,2.08-4-1.52-3.66-2.88-3.52S224.89,558,225.13,560Z"/><path class="cls-2" d="M224.81,569.6c.12,1,.78,1.66,1.51,1.58a1.57,1.57,0,0,0,1.14-1.87c-.12-.94-.77-1.66-1.51-1.59A1.59,1.59,0,0,0,224.81,569.6Z"/></g><g class="cls-5"><path class="cls-2" d="M223.43,532.54c4.89,0,9.67,2.55,12.87,9.78l8.77,38-10.28,1.11-3.58-5.31.63,5.84-.87.16C219.53,562.59,222.62,537.63,223.43,532.54Z"/></g><path class="cls-4" d="M236.17,554.78s4,19.13,6.71,23.84l-5.75,1.47S232.84,566.42,236.17,554.78Z"/><path class="cls-2" d="M235.42,495.12l4.06,51.55h-9l-2.59-7.52V547l-2.62.3-2-4.35-1.15,5.21-8.7.29s-1.17-6.95-1.46-6.07-.87,5.21-.87,5.21l-8.12-3.2S204.66,507,207.28,496,229.61,467.31,235.42,495.12Z"/><g class="cls-3"><path class="cls-2" d="M224.1,517c0,2.79,1,5.06,2.18,5.06s2.16-2.27,2.16-5.06-1-5.07-2.16-5.07S224.1,514.19,224.1,517Z"/><path class="cls-2" d="M222.93,529.58c0,1.28.53,2.33,1.17,2.33s1.16-1,1.16-2.33-.5-2.32-1.16-2.32S222.93,528.3,222.93,529.58Z"/></g><g class="cls-5"><path class="cls-2" d="M225.18,480.33c4.25.66,8.14,4.78,10.24,14.79l4.06,51.55h-9l-2.59-7.52V547l-.76.09C219,519.56,224,487,225.18,480.33Z"/></g><path class="cls-4" d="M234.15,511.6s1.69,25.87,3.59,32.48l-5.1,1.13S230.19,526.51,234.15,511.6Z"/><path class="cls-2" d="M234.25,441.54s.29,41.13,4.06,56.77L229.9,500,227.59,494,227,500h-4.36l-2-6.08-1.17,8.1-6.38.29L211.91,494l-1.74,7.23L205,499.45s.28-35.32,9.29-55.89S234,430.81,234.25,441.54Z"/><g class="cls-3"><path class="cls-2" d="M226.44,467.49c0,2.35.87,4.27,1.95,4.27s2-1.92,2-4.27-.88-4.26-2-4.26S226.44,465.13,226.44,467.49Z"/><path class="cls-2" d="M222.54,459.41c0,1.69.63,3.07,1.42,3.07s1.43-1.38,1.43-3.07-.63-3.07-1.43-3.07S222.54,457.72,222.54,459.41Z"/><path class="cls-2" d="M220.75,481.19c0,1.4.63,2.55,1.42,2.55s1.43-1.15,1.43-2.55-.65-2.55-1.43-2.55S220.75,479.78,220.75,481.19Z"/></g><g class="cls-5"><path class="cls-2" d="M228,431c3.58,1,6.07,5.48,6.21,10.58,0,0,.29,41.13,4.06,56.77L229.9,500,227.59,494,227,500h-1.28C223.28,473.66,225.79,447.29,228,431Z"/></g><path class="cls-4" d="M232.8,455.15s.28,24.89,2.62,40l-4.07.29S228.16,473.11,232.8,455.15Z"/><path class="cls-2" d="M241.22,393.16s-5.51,32.44-4.66,52.72l-8.12.87-.85-7.54-1.17,7.54-4.64.58v-3.77l-1.45,3.77-10.16.58s4.93-33.61,13.05-58.81C223.22,389.1,240.63,378.1,241.22,393.16Z"/><g class="cls-5"><path class="cls-2" d="M241.22,393.16s-5.51,32.44-4.66,52.72l-8.12.87-.85-7.54-1.17,7.54-1.27.15a270.4,270.4,0,0,1,10.95-61.52C238.85,385.92,241,388,241.22,393.16Z"/></g><g class="cls-5"><path class="cls-2" d="M230.33,412.8c-.34,2.53.14,4.69,1.08,4.83s2-1.82,2.33-4.35-.14-4.69-1.08-4.82S230.68,410.27,230.33,412.8Z"/><path class="cls-2" d="M227.92,427.59c0,.94.45,1.71,1,1.71s1-.77,1-1.71-.43-1.73-1-1.73S227.92,426.64,227.92,427.59Z"/><path class="cls-2" d="M228.08,408.57c0,.9.43,1.64,1,1.64s1-.74,1-1.64-.44-1.65-1-1.65S228.08,407.66,228.08,408.57Z"/></g><g class="cls-6"><path class="cls-2" d="M221,396.49c.7-2.52,1.45-5,2.21-7.39,0,0,17.41-11,18,4.06,0,0-.58,3.36-1.32,8.58C235.75,402.52,228.53,402.58,221,396.49Z"/></g><path class="cls-4" d="M238.56,404.68s-4.51,25.19-2.91,39l-5.05.53S230.6,418.47,238.56,404.68Z"/><path class="cls-2" d="M254.55,353.77s-11,28.67-11,44.89L236,396.35l.29-5.78-1.74,5.21-8.41-.29,1.46-6.1-4.37,5.81-4.34-3.2s13.34-34.75,18.85-43.73S256.59,341.6,254.55,353.77Z"/><g class="cls-5"><path class="cls-2" d="M243.29,367.88c-.5,2.1-.22,4,.64,4.18s2-1.32,2.49-3.43.21-4-.65-4.17S243.82,365.79,243.29,367.88Z"/><path class="cls-2" d="M239.92,377.93c-.26,1.05-.13,2,.33,2.1s1-.68,1.25-1.73.1-2-.33-2.11S240.18,376.86,239.92,377.93Z"/></g><g class="cls-5"><path class="cls-2" d="M254.55,353.77s-11,28.67-11,44.89L236,396.35l.29-5.78-1.74,5.21-.83,0c2.51-18.51,12.74-40.08,18.43-51C254.15,346.57,255.25,349.59,254.55,353.77Z"/></g><g class="cls-6"><path class="cls-2" d="M234.87,353.7c1.08-2.24,2-4.11,2.86-5.43,5.52-9,18.86-6.67,16.82,5.5,0,0-1.17,3.07-2.76,7.75C247.26,361.89,240.61,360.85,234.87,353.7Z"/></g><path class="cls-4" d="M248.75,367.68s-5.64,17.52-6.69,29c-2.3-.87-2.88-1-2.88-1S241.65,376.8,248.75,367.68Z"/><path class="cls-2" d="M237.73,348.27a10.87,10.87,0,0,1,8.31-5.4c-5.27,8.92-14.57,26.57-19.34,47.7l-3.48,4.63-2.14-1.59a138.26,138.26,0,0,1,3.65-16.4C229,366.6,234.63,353.34,237.73,348.27Z"/><path class="cls-2" d="M265,329.73s-7.83,20.28-10.45,29.55l-8.1-3.77,2-7.24-3.2,6.94-3.48-1.73.59-4.06-2,3.19-6.66-2.9,23.2-38.81S265.88,318.73,265,329.73Z"/><path class="cls-2" d="M248.24,349.1c-.29.5-.56,1-.83,1.49l1.06-2.32Z"/><path class="cls-4" d="M265,329.73s-7.83,20.28-10.45,29.55l-8.1-3.77,1.79-6.41a187.17,187.17,0,0,1,16.59-23.82A19.83,19.83,0,0,1,265,329.73Z"/><path class="cls-4" d="M250.07,340.74c-.8,2-.57,4,.46,4.37s2.54-.9,3.31-2.91.56-4-.48-4.38S250.83,338.73,250.07,340.74Z"/><path class="cls-4" d="M262,334.4s-5.07,13.39-7.6,22.18l-2.64-1S256.19,340.8,262,334.4Z"/><path class="cls-2" d="M233.69,349.71l23.2-38.81a28,28,0,0,1,5.71,7.61,113.82,113.82,0,0,0-20.54,35.1l-.27-.13.59-4.06-2,3.19Z"/><path class="cls-2" d="M260.07,308.87c-18.28-24.6-9.28-59.65-9.28-59.65h4.93l-4.06-2,5.23-13,2.89-.86-.58-2.6,3.48-8.69,3.78.58L265,218.22c11.89-19.41,36-25.78,36-25.78l-2.32,15.65H294.3l3.19,3.47-4.64,16.8-5.52.29,4.07,3.76-3.2,11-4.34,1.16,3.17,2.9c-6.95,10.42-7.81,31.28-7.81,31.28Z"/><path class="cls-2" d="M301,192.44a31.36,31.36,0,0,0-5,2.41,52.32,52.32,0,0,0-5.3,3.52,56.3,56.3,0,0,0-6.21,5.41,68.83,68.83,0,0,0-6.4,7.33,76.71,76.71,0,0,0-6,9.12c-.87,1.69-1.84,3.35-2.61,5.14-.42.88-.83,1.76-1.24,2.65s-.74,1.82-1.12,2.74c-.8,1.82-1.39,3.74-2.08,5.61s-1.17,3.86-1.77,5.77-.93,3.91-1.42,5.86-.75,3.93-1.13,5.88-.59,3.9-.88,5.81-.41,3.84-.6,5.71c-.12.94-.16,1.87-.22,2.8s-.11,1.83-.18,2.74-.08,1.81-.14,2.69,0,1.76,0,2.62c0,1.72-.05,3.41-.08,5s.06,3.2.09,4.7c0,3,.27,5.78.41,8.21.07,1.22.12,2.36.22,3.43s.2,2,.29,2.88c.36,3.49.56,5.5.56,5.5s-.14-2-.39-5.52c-.06-.86-.14-1.84-.23-2.89s-.08-2.19-.13-3.42c-.09-2.45-.26-5.18-.23-8.19,0-1.51,0-3.07,0-4.7s.09-3.29.15-5c0-.87.06-1.73.08-2.62s.13-1.77.2-2.67c.15-1.8.2-3.65.41-5.51s.43-3.76.65-5.67.6-3.84.88-5.77.77-3.89,1.17-5.85,1-3.87,1.44-5.81,1.1-3.83,1.73-5.72,1.24-3.78,2-5.59c.36-.92.73-1.82,1.09-2.72s.81-1.76,1.2-2.65c.76-1.77,1.72-3.43,2.58-5.09a82,82,0,0,1,5.78-9.1,69,69,0,0,1,6.25-7.39,67.07,67.07,0,0,1,6.07-5.49,51.28,51.28,0,0,1,5.17-3.63A33.33,33.33,0,0,1,301,192.44Z"/><g class="cls-3"><path class="cls-2" d="M268.38,247.42c0,.89.35,1.61.8,1.61s.81-.72.81-1.61-.36-1.61-.81-1.61S268.38,246.53,268.38,247.42Z"/><path class="cls-2" d="M252.79,260.15c0,.79.33,1.41.72,1.41s.7-.62.7-1.41-.31-1.41-.7-1.41S252.79,259.36,252.79,260.15Z"/></g><path class="cls-2" d="M301.56,300.77s35.09-6.08,67.29,20.56l-.58,3.47,4.94.59L372,328l11,7.54-.87,2s16.82,13.33,13.64,60.83C381,369.71,368,362.75,368,362.75l3.17-5.5-3.75,2.31s-13.93-11-19.44-13l.86-6.38-2.32,3.77-1.74-2.9-1.15.87-22.35-9.27Z"/><path class="cls-7" d="M336.81,327.75c-.39.95,1.16,2.52,3.51,3.51s4.54,1,4.93,0-1.15-2.54-3.49-3.49S337.21,326.78,336.81,327.75Z"/><path class="cls-2" d="M395.84,398.38s0-.55.07-1.61.07-2.58,0-4.54-.19-4.31-.44-7-.73-5.76-1.39-9.06a95.77,95.77,0,0,0-2.76-10.48c-.29-.92-.58-1.84-.93-2.78s-.7-1.86-1-2.81-.79-1.86-1.2-2.82-.84-1.91-1.31-2.84a89.27,89.27,0,0,0-6.46-11.24l-1.95-2.7c-.32-.44-.64-.91-1-1.35l-1.07-1.29-2.13-2.6L372,332.75c-1.51-1.68-3.22-3.15-4.84-4.68-.78-.79-1.69-1.46-2.54-2.17L362,323.8c-1.8-1.31-3.58-2.57-5.35-3.8s-3.67-2.28-5.48-3.35l-5.48-2.87c-1.86-.85-3.67-1.63-5.43-2.4-.44-.2-.88-.41-1.32-.57l-1.33-.49-2.58-.95-2.53-.92c-.8-.31-1.66-.52-2.45-.77l-4.63-1.36c-1.46-.44-2.9-.7-4.22-1l-3.72-.86c-1.15-.28-2.24-.4-3.19-.58l-6.07-1.05,6,1.18c1,.21,2,.36,3.18.67s2.38.62,3.7.94,2.73.67,4.18,1.12l4.59,1.43c.79.27,1.62.5,2.44.79l2.48,1,2.57,1,1.32.52c.43.17.87.38,1.3.58,1.74.8,3.53,1.59,5.36,2.46l5.42,2.89c1.79,1.07,3.6,2.2,5.42,3.33s3.53,2.51,5.29,3.79l2.55,2.11c.84.7,1.73,1.37,2.52,2.16,1.6,1.52,3.28,3,4.75,4.66l2.27,2.43,2.14,2.55,1.07,1.29c.33.43.65.88,1,1.33l1.93,2.66a86,86,0,0,1,6.46,11.11c1,1.84,1.69,3.76,2.53,5.6.37.93.72,1.86,1.07,2.77s.68,1.84,1,2.76a92.26,92.26,0,0,1,2.89,10.38c.69,3.27,1.2,6.3,1.55,9s.54,5.07.63,7,.1,3.48.09,4.52S395.84,398.38,395.84,398.38Z"/><path class="cls-2" d="M298.36,301.35s15.08-5.5,20-6.09l-1.45-10.12,5.81,8.1,9.85-1.75-.58-6.94,3.18,6.09,14.51-1.18,1.16-7.24,1.46,6.38,7,1.74,3.16-8.4,1.46,12.17,14.8,3.19.58-6.38L381.9,299l4.94.59,1.73-6.38,1.16,7.53s9.58,3.18,12.77,7.53c-1.16-17.66-16-36.5-27-44.6l-.57,5.2-4.35-7.23-15.37-4.06.58,4.92L352,256.17a50.69,50.69,0,0,0-13.93-2.32,18.5,18.5,0,0,0,2,4.63L332,253.27s-26.11,2.31-40,11.6l1.45,3.16-5.8-1.73.87,3.47s-31.05,15.94-27.56,41.13C293.43,302.22,298.36,301.35,298.36,301.35Z"/><path class="cls-2" d="M402.5,308.3s-.13-.64-.49-1.81a39.73,39.73,0,0,0-1.9-4.93,50.58,50.58,0,0,0-11-15.3,56.85,56.85,0,0,0-10.08-7.66,64.46,64.46,0,0,0-12.87-5.85,86.61,86.61,0,0,0-14.7-3.48,116.58,116.58,0,0,0-15.57-1.14,83.08,83.08,0,0,0-15.55,1.31,91.6,91.6,0,0,0-14.64,3.81A85.09,85.09,0,0,0,282.3,286,68.36,68.36,0,0,0,269,299.45a30,30,0,0,0-2.8,4.49,9.8,9.8,0,0,0-.52,1.29c-.08.31-.13.47-.13.47l.14-.47a11.45,11.45,0,0,1,.56-1.27,28.26,28.26,0,0,1,2.87-4.42,70.55,70.55,0,0,1,13.46-13.12A86.08,86.08,0,0,1,306,274a89.37,89.37,0,0,1,14.51-3.72A83.44,83.44,0,0,1,335.92,269a120,120,0,0,1,15.45,1.08A86.2,86.2,0,0,1,366,273.46a66.62,66.62,0,0,1,12.77,5.69,56.27,56.27,0,0,1,10.07,7.47,51.14,51.14,0,0,1,11.18,15,41.74,41.74,0,0,1,2,4.88A17.5,17.5,0,0,1,402.5,308.3Z"/><path class="cls-2" d="M260.94,310.9l-8.12,15.93-13.34,5.8-4.06-9.27-2.62,7.82-10.45,2.61-1.44-8.4-2.32,6.94-21.48,10.45-3.76-6.39-.87,5.51-7.26,1.16-2.89-5.51-.29,6.09-19.44,13.9-7.83-4.93.87,5.22s-18,5.8-34.23,28.66l-2.33-3.18-.86,3.18s-7.24-1.72-11.61,11c0,0-7.54-17.95-1.15-45.18l3.19.59-.59-4.35s7.55-10.42,11.32-12.75l2.31,2.9v-4.92s12.47-11.59,16.56-14.48a13,13,0,0,0,2.6,5.2l-.58-7.81,14.79-6.37-1.63-5.43,8.89-4.13,5.45,4.61L166.1,299l17-3.34,6.18,3.64-1.76-4a156.22,156.22,0,0,1,22.89-2l4.81,4-.68-4.21S252.67,295.56,260.94,310.9Z"/><path class="cls-2" d="M260.94,310.9s-.73-.2-2.12-.5-3.44-.75-6.06-1.17-5.82-.89-9.51-1.32c-1.84-.17-3.8-.35-5.87-.5s-4.27-.27-6.54-.27l-3.5-.06c-1.18,0-2.39.05-3.62.08-2.47,0-5,.22-7.61.4-1.3.08-2.62.25-4,.4s-2.68.3-4,.49-2.73.48-4.12.7l-2.07.38-2.07.48-4.21,1c-1.41.38-2.8.85-4.2,1.26-2.83.82-5.61,1.83-8.41,2.92a161.86,161.86,0,0,0-16.55,7.5A143.09,143.09,0,0,0,137.16,343,106.81,106.81,0,0,0,117.34,367a86.95,86.95,0,0,0-8.8,20.13c-.7,2.55-1.22,4.58-1.48,6l-.45,2.13s.18-.75.49-2.13.84-3.41,1.58-5.95a83,83,0,0,1,3.37-8.95,89,89,0,0,1,5.71-11,99,99,0,0,1,8.57-11.87,117.48,117.48,0,0,1,11.34-11.76,142.85,142.85,0,0,1,29.23-20.12,155.2,155.2,0,0,1,16.42-7.51c2.77-1.09,5.56-2.11,8.35-2.93,1.41-.43,2.79-.89,4.18-1.26s2.79-.68,4.16-1l2.07-.49,2.06-.37c1.37-.24,2.72-.5,4.07-.73s2.7-.35,4-.53,2.64-.35,3.93-.43c2.6-.2,5.13-.43,7.58-.47,1.22-.05,2.42-.11,3.6-.12s2.35,0,3.49,0c2.27,0,4.45.13,6.52.19s4,.26,5.87.4c3.69.35,6.9.73,9.51,1.15s4.68.78,6.09,1.06S260.94,310.9,260.94,310.9Z"/><path class="cls-2" d="M181.78,343.81l.26-.17Z"/><path class="cls-2" d="M261.29,308.92l-4.56,15.68,14.69,20.24,7.6-4.31-3.79,6.84,6.09,15.43,4-1.27-2.78,4.55,6.33,23.8h6.59l-4.31,3.79,2.54,2.27-1.52,2.79,1,23.52,8.89.52-5.33,3.28,3.79,2.79-4.8,2-2.55,24.29,4.07-.76-1.78,2,2.8,3.3-2.8.75s-1.77,12.91-3,17.46c0,0,20.83-21.39,25.19-32L315.48,442l4.13-.22s8-12.82,9.35-21.94l-2.83-4.35,3.92,1.74,1.53-7-2.62-3.9,3.7,1.52s4.79-15.21,4.57-23.89l-4.14-8.91,4.36,2s0-27.6-3.05-37.79c-5.22-3.92-6.53-4.35-6.53-4.35h5.66s-6.67-15.76-12.61-22.82C312.87,302.52,284.56,290.34,261.29,308.92Z"/><path class="cls-2" d="M292.85,476.87s2-2.5,4.9-7.22a152.79,152.79,0,0,0,20.19-51.48,135.16,135.16,0,0,0,2-37.2l-.51-4.75c-.26-1.61-.6-3.12-.87-4.69s-.71-3.09-1.05-4.62-.77-3.05-1.19-4.57A116.68,116.68,0,0,0,310,345.07a82.25,82.25,0,0,0-8.75-14.8,63.16,63.16,0,0,0-10.6-11.17,51.61,51.61,0,0,0-5.58-4,48.46,48.46,0,0,0-5.5-2.86,40.16,40.16,0,0,0-9.59-2.9,37.45,37.45,0,0,0-6.43-.54c-1.49,0-2.28.1-2.28.1s.79-.05,2.28-.06a38.13,38.13,0,0,1,6.4.64,40.82,40.82,0,0,1,9.51,3.05,48.72,48.72,0,0,1,10.87,6.93,63.32,63.32,0,0,1,10.42,11.15,85.13,85.13,0,0,1,8.55,14.76,114.82,114.82,0,0,1,6.21,17.17c.41,1.51.78,3,1.16,4.54s.68,3,1,4.59.64,3.13.85,4.63l.52,4.71a135.86,135.86,0,0,1-1.87,37,159.8,159.8,0,0,1-19.58,51.53C294.77,474.33,292.85,476.87,292.85,476.87Z"/><g class="cls-3"><path class="cls-2" d="M298.89,353.31c0,3.22,1.63,5.81,3.63,5.81s3.63-2.59,3.63-5.81-1.62-5.84-3.63-5.84S298.89,350.08,298.89,353.31Z"/><path class="cls-2" d="M295.42,362c0,1.41.71,2.53,1.58,2.53s1.58-1.12,1.58-2.53-.72-2.51-1.58-2.51S295.42,360.57,295.42,362Z"/><path class="cls-2" d="M291.31,343.06c0,1.74.86,3.14,1.9,3.14s1.89-1.4,1.89-3.14-.84-3.15-1.89-3.15S291.31,341.33,291.31,343.06Z"/></g><path class="cls-2" d="M260.21,309.89s-15.66-18.46-47-17.6l-.22-2.6-1.75,3-15-.64.22-4.78-2.4,3.48s-17.84-3-26.1-2.61c-2-4.79-1.76-6.08-1.76-6.08l-1.73,5.21s-12.19,0-18.06,1.95c-2.4-3.9-2.4-4.77-2.4-4.77v4.34s-22.62,4.57-31.54,15.85a35.06,35.06,0,0,1,1.09-7.17s-5.87,9.79-6.31,12.6c0,0-4.57-23.67,17.41-45.83l4.34.88-1.09-2.62s15.88-11.5,30.24-13.46c4.79,4.34,5.67,5.2,5.67,5.2l-.22-6.73a148.9,148.9,0,0,1,17.18.65l3.27,5,1.08-4.13s17.63.22,30,4.78c3.48,5.21,4.35,6.29,4.35,6.29l.88-5.64s10.87,5.64,17.38,8.92c1.1,4.77,1.77,6.93,1.77,6.93l1.73-4.56S255.64,278.61,260.21,309.89Z"/><path class="cls-2" d="M106.91,300.77a13.86,13.86,0,0,1,.56-1.95,30.87,30.87,0,0,1,2.41-5.2,41.5,41.5,0,0,1,5.28-7.13,50.73,50.73,0,0,1,8.75-7.43A63.72,63.72,0,0,1,136,272.73a91.69,91.69,0,0,1,14.55-4.42,126.47,126.47,0,0,1,16.1-2.41,109.52,109.52,0,0,1,16.79.13,116.52,116.52,0,0,1,32.19,7.27A109.52,109.52,0,0,1,241,286.85a83.67,83.67,0,0,1,8.82,7.43,51.12,51.12,0,0,1,5.84,6.7,33.31,33.31,0,0,1,3,4.88l.82,1.87s-.28-.66-.77-1.88a34.48,34.48,0,0,0-2.91-5,65,65,0,0,0-14.49-14.42,107.1,107.1,0,0,0-25.44-13.88,117.45,117.45,0,0,0-32.38-7.42,110.16,110.16,0,0,0-16.94-.07,123.33,123.33,0,0,0-16.2,2.48c-10.39,2.29-19.72,6.2-26.73,11.06a51.5,51.5,0,0,0-8.71,7.64,41.8,41.8,0,0,0-5.16,7.28,31.13,31.13,0,0,0-2.32,5.25A16.22,16.22,0,0,0,106.91,300.77Z"/><g class="cls-3"><path class="cls-2" d="M206,280.37c0,2.12,1.41,3.83,3.15,3.83s3.13-1.71,3.13-3.83-1.41-3.85-3.13-3.85S206,278.24,206,280.37Z"/><path class="cls-2" d="M196.92,275.81c0,.61.32,1.12.7,1.12s.73-.51.73-1.12-.33-1.1-.73-1.1S196.92,275.2,196.92,275.81Z"/><path class="cls-2" d="M195.71,260.25a1.42,1.42,0,1,0,1.41-1.51A1.47,1.47,0,0,0,195.71,260.25Z"/></g><path class="cls-2" d="M213.07,290.54l-.59.08.53-.93Z"/><path class="cls-2" d="M113.31,553.82l6.41,27.74-7.51.8-2.61-3.88.46,4.27-2.16.39L106,581l-.66,2.94-7.23,1s-1.38-3.69-1.56-3.2a22.84,22.84,0,0,0-.43,2.92l-6.95-1s-.73-20.52.81-26.75S106.86,539.18,113.31,553.82Z"/><g class="cls-3"><path class="cls-2" d="M105.16,566.75c.18,1.52,1.1,2.67,2.11,2.56s1.69-1.42,1.52-2.94-1.1-2.69-2.11-2.58S105,565.23,105.16,566.75Z"/><path class="cls-2" d="M104.93,573.73c.08.69.56,1.21,1.11,1.14a1.14,1.14,0,0,0,.83-1.36,1,1,0,1,0-1.94.22Z"/></g><g class="cls-5"><path class="cls-2" d="M103.93,546.67c3.57,0,7,1.87,9.38,7.15l6.41,27.74-7.51.8-2.61-3.88.46,4.27-.64.13C101.08,568.6,103.34,550.4,103.93,546.67Z"/></g><path class="cls-4" d="M113.23,562.92s2.92,14,4.89,17.38l-4.2,1.08S110.8,571.4,113.23,562.92Z"/><path class="cls-2" d="M112.67,519.39l3,37.6h-6.55l-1.9-5.49v5.72l-1.91.2-1.48-3.17-.85,3.8-6.35.21s-.84-5.06-1-4.44-.64,3.8-.64,3.8L89,555.31s1.26-27.26,3.17-35.3S108.44,499.1,112.67,519.39Z"/><g class="cls-3"><path class="cls-2" d="M104.41,535.35c0,2,.72,3.68,1.59,3.68s1.59-1.65,1.59-3.68-.7-3.7-1.59-3.7S104.41,533.3,104.41,535.35Z"/><path class="cls-2" d="M103.57,544.53c0,.93.38,1.68.84,1.68s.85-.75.85-1.68-.36-1.68-.85-1.68S103.57,543.6,103.57,544.53Z"/></g><g class="cls-5"><path class="cls-2" d="M105.2,508.61c3.1.47,5.94,3.48,7.47,10.78l3,37.6h-6.55l-1.9-5.49v5.72l-.56,0C100.7,537.22,104.36,513.43,105.2,508.61Z"/></g><path class="cls-4" d="M111.75,531.41s1.23,18.86,2.62,23.69l-3.72.84S108.85,542.28,111.75,531.41Z"/><path class="cls-2" d="M111.83,480.3s.2,30,3,41.41L108.64,523,107,518.54l-.41,4.44h-3.2l-1.46-4.44-.85,5.91-4.65.21-.85-6.12-1.26,5.28-3.82-1.27s.2-25.77,6.77-40.78S111.62,472.47,111.83,480.3Z"/><g class="cls-3"><path class="cls-2" d="M106.12,499.22c0,1.73.65,3.12,1.43,3.12S109,501,109,499.22s-.65-3.1-1.43-3.1S106.12,497.52,106.12,499.22Z"/><path class="cls-2" d="M103.29,493.34c0,1.23.45,2.24,1,2.24s1.05-1,1.05-2.24-.47-2.26-1.05-2.26S103.29,492.09,103.29,493.34Z"/><path class="cls-2" d="M102,509.22c0,1,.45,1.87,1,1.87s1-.85,1-1.87-.47-1.85-1-1.85S102,508.19,102,509.22Z"/></g><g class="cls-5"><path class="cls-2" d="M107.3,472.58c2.59.76,4.42,4,4.53,7.72,0,0,.2,30,3,41.41L108.64,523,107,518.54l-.41,4.44h-1C103.81,503.73,105.64,484.49,107.3,472.58Z"/></g><g class="cls-6"><path class="cls-2" d="M95.06,487.82a49.31,49.31,0,0,1,2.16-6.05c6.56-15,14.4-9.3,14.61-1.47,0,0,0,3.17.13,7.85C109.12,489.44,103.54,490.77,95.06,487.82Z"/></g><path class="cls-4" d="M110.76,490.23s.22,18.16,1.91,29.16l-3,.21S107.39,503.33,110.76,490.23Z"/><path class="cls-2" d="M116.9,445s-4,23.67-3.39,38.46l-5.92.63L107,478.6l-.84,5.49-3.38.43v-2.75l-1.06,2.75-7.4.42s3.58-24.51,9.51-42.88C103.78,442.06,116.49,434,116.9,445Z"/><g class="cls-5"><path class="cls-2" d="M116.9,445s-4,23.67-3.39,38.46l-5.92.63L107,478.6l-.84,5.49-.93.13a197.65,197.65,0,0,1,8-44.89C115.18,439.72,116.75,441.26,116.9,445Z"/></g><g class="cls-5"><path class="cls-2" d="M109,459.33c-.27,1.86.08,3.42.78,3.52s1.44-1.33,1.68-3.17-.09-3.42-.77-3.52S109.21,457.48,109,459.33Z"/><path class="cls-2" d="M107.21,470.13c0,.67.31,1.24.71,1.24s.71-.57.71-1.24-.32-1.27-.71-1.27S107.21,469.43,107.21,470.13Z"/><path class="cls-2" d="M107.32,456.24c0,.66.32,1.2.71,1.2s.71-.54.71-1.2-.33-1.19-.71-1.19S107.32,455.58,107.32,456.24Z"/></g><path class="cls-4" d="M115,453.4s-3.28,18.38-2.12,28.43l-3.68.39S109.16,463.46,115,453.4Z"/><path class="cls-2" d="M126.64,416.28s-8,20.91-8,32.74l-5.5-1.69.22-4.22-1.28,3.8-6.13-.22,1-4.44-3.17,4.23-3.17-2.32s9.74-25.36,13.76-31.91S128.12,407.39,126.64,416.28Z"/><g class="cls-5"><path class="cls-2" d="M118.43,426.57c-.38,1.52-.17,2.89.45,3s1.44-1,1.8-2.5.17-2.9-.46-3.05S118.79,425,118.43,426.57Z"/><path class="cls-2" d="M116,433.88c-.17.78-.08,1.46.24,1.54s.72-.5.92-1.26.08-1.47-.25-1.54S116.15,433.1,116,433.88Z"/></g><g class="cls-5"><path class="cls-2" d="M126.64,416.28s-8,20.91-8,32.74l-5.5-1.69.22-4.22-1.28,3.8-.6,0c1.83-13.51,9.29-29.23,13.44-37.19C126.33,411,127.14,413.21,126.64,416.28Z"/></g><path class="cls-4" d="M122.4,426.41s-4.14,12.78-4.87,21.13c-1.69-.63-2.11-.73-2.11-.73S117.22,433.06,122.4,426.41Z"/><path class="cls-2" d="M134.26,398.72s-5.72,14.81-7.62,21.57l-5.92-2.76,1.48-5.28-2.35,5.07-2.53-1.27.43-2.95-1.48,2.32-4.87-2.11L128.34,385S134.9,390.7,134.26,398.72Z"/><path class="cls-2" d="M122,412.85l-.61,1.09.79-1.69Z"/><path class="cls-4" d="M134.26,398.72s-5.72,14.81-7.62,21.57l-5.92-2.76,1.3-4.68a137.79,137.79,0,0,1,12.12-17.36A14.34,14.34,0,0,1,134.26,398.72Z"/><path class="cls-4" d="M123.35,406.75c-.56,1.47-.41,2.9.36,3.19s1.83-.66,2.42-2.13.4-2.89-.38-3.18S123.91,405.28,123.35,406.75Z"/><path class="cls-4" d="M132.06,402.14s-3.7,9.76-5.55,16.17l-1.93-.69S127.83,406.81,132.06,402.14Z"/><path class="cls-2" d="M133.29,380.48c-15.44-20.8-7.84-50.42-7.84-50.42h4.17l-3.42-1.71,4.41-11,2.44-.73-.5-2.21,2.95-7.33,3.19.49-1.22-3.67c10-16.41,30.37-21.79,30.37-21.79l-2,13.21h-3.67l2.69,2.94L161,312.45l-4.67.24,3.43,3.18-2.7,9.3-3.66,1,2.68,2.46c-5.87,8.8-6.62,26.43-6.62,26.43Z"/><path class="cls-2" d="M167.84,282.1a25.85,25.85,0,0,0-4.19,2,42,42,0,0,0-4.45,3,45,45,0,0,0-5.25,4.56,58.69,58.69,0,0,0-5.43,6.21,66.17,66.17,0,0,0-5,7.71c-.72,1.42-1.53,2.82-2.21,4.32-.34.76-.68,1.49-1,2.26s-.64,1.54-.95,2.32c-.68,1.53-1.16,3.15-1.76,4.73s-1,3.26-1.48,4.88-.8,3.3-1.2,4.95-.65,3.31-1,5-.5,3.29-.74,4.91-.34,3.25-.51,4.82c-.1.8-.15,1.59-.2,2.36s-.08,1.56-.13,2.32-.09,1.53-.13,2.28,0,1.48,0,2.21c0,1.46-.05,2.88-.07,4.25s0,2.7.08,4c0,2.55.21,4.87.34,6.93.07,1,.11,2,.2,2.89s.18,1.7.24,2.44c.3,2.95.47,4.64.47,4.64s-.12-1.69-.32-4.65c-.06-.74-.13-1.55-.19-2.44s-.08-1.85-.12-2.91c-.07-2-.21-4.37-.19-6.9,0-1.29,0-2.6,0-4s.1-2.79.13-4.24c0-.73,0-1.45.07-2.21s.13-1.49.16-2.24c.14-1.53.18-3.09.38-4.66s.36-3.19.52-4.79.51-3.26.76-4.89.64-3.29,1-4.93.82-3.28,1.22-4.91.92-3.25,1.48-4.84,1-3.19,1.68-4.71c.32-.77.63-1.55.94-2.31s.68-1.49,1-2.24c.66-1.49,1.45-2.89,2.19-4.3A65.65,65.65,0,0,1,149,298.2a55.39,55.39,0,0,1,5.28-6.23,51.82,51.82,0,0,1,5.13-4.64,46,46,0,0,1,4.36-3.09A27.73,27.73,0,0,1,167.84,282.1Z"/><g class="cls-3"><path class="cls-2" d="M140.32,328.56c0,.75.3,1.35.68,1.35s.67-.6.67-1.35-.29-1.38-.67-1.38S140.32,327.8,140.32,328.56Z"/><path class="cls-2" d="M127.15,339.32c0,.65.27,1.19.59,1.19s.62-.54.62-1.19-.28-1.2-.62-1.2S127.15,338.66,127.15,339.32Z"/></g><path class="cls-2" d="M168.34,373.62S198,368.49,225.2,391l-.49,2.94,4.17.49-1,2.19,9.31,6.37-.73,1.72S250.69,416,248,456.1c-12.51-24.22-23.53-30.1-23.53-30.1l2.7-4.65-3.19,2s-11.76-9.31-16.42-11l.72-5.38-1.94,3.19-1.48-2.45-1,.73L185,400.54Z"/><path class="cls-7" d="M198.13,396.42c-.34.81,1,2.13,3,3s3.84.82,4.19,0-1-2.15-3-3S198.47,395.59,198.13,396.42Z"/><path class="cls-2" d="M248,456.1s.05-.48.07-1.36.05-2.19,0-3.83-.17-3.66-.37-6-.62-4.88-1.19-7.66a82.68,82.68,0,0,0-2.32-8.85c-.24-.78-.5-1.57-.79-2.34l-.88-2.37c-.33-.8-.68-1.6-1-2.41s-.7-1.59-1.11-2.39a72.88,72.88,0,0,0-5.46-9.49c-.54-.76-1.09-1.52-1.65-2.29-.27-.36-.53-.77-.82-1.14l-.9-1.09-1.82-2.19-1.93-2.08a54.28,54.28,0,0,0-4.07-4c-.68-.67-1.43-1.24-2.16-1.84s-1.45-1.19-2.18-1.77c-1.51-1.1-3-2.18-4.52-3.21s-3.1-1.93-4.62-2.83l-4.63-2.43c-1.56-.72-3.11-1.38-4.6-2-.37-.16-.73-.33-1.1-.48l-1.13-.41-2.19-.8-2.13-.79c-.7-.26-1.4-.43-2.07-.64-1.36-.4-2.67-.78-3.92-1.16s-2.43-.59-3.55-.87-2.18-.49-3.15-.71-1.89-.35-2.7-.51c-3.27-.55-5.12-.88-5.12-.88l5.1,1c.8.18,1.72.3,2.68.57s2,.52,3.12.79,2.3.56,3.54.95,2.52.79,3.88,1.2c.67.23,1.37.43,2.06.68l2.08.8c.72.27,1.45.56,2.18.82l1.12.44c.36.14.72.33,1.09.48,1.48.68,3,1.36,4.53,2.09l4.6,2.44c1.5.91,3,1.87,4.56,2.83s3,2.1,4.48,3.21c.71.56,1.43,1.17,2.15,1.76s1.47,1.15,2.11,1.82c1.37,1.3,2.79,2.53,4,3.93l1.94,2.06,1.79,2.18.88,1.07c.3.36.56.74.84,1.12.55.76,1.09,1.51,1.64,2.25a73.41,73.41,0,0,1,5.45,9.39c.83,1.55,1.44,3.19,2.14,4.73.31.79.61,1.56.9,2.35s.58,1.54.82,2.32a78.57,78.57,0,0,1,2.43,8.78c.59,2.75,1,5.31,1.31,7.58s.46,4.27.53,5.95.09,2.93.09,3.81S248,456.1,248,456.1Z"/><path class="cls-2" d="M165.65,374.13s12.74-4.68,16.9-5.15l-1.22-8.57,4.91,6.86,8.32-1.47-.48-5.88,2.69,5.13,12.25-1,1-6.11,1.2,5.37,5.9,1.48,2.69-7.1L221,368l12.49,2.69.49-5.39,2.2,6.86,4.18.48,1.46-5.37,1,6.35s8.08,2.69,10.77,6.37c-1-14.94-13.47-30.84-22.78-37.68l-.49,4.4-3.67-6.12-13-3.43.5,4.17L211,336A43.06,43.06,0,0,0,199.22,334a15.5,15.5,0,0,0,1.73,3.9l-6.87-4.4s-22.07,1.95-33.83,9.78l1.23,2.7-4.89-1.48.73,2.94S131.09,360.91,134,382.2C161.48,374.84,165.65,374.13,165.65,374.13Z"/><path class="cls-2" d="M253.62,380a15.41,15.41,0,0,0-.4-1.52,32.86,32.86,0,0,0-1.61-4.18,42.56,42.56,0,0,0-9.27-12.92,47,47,0,0,0-8.51-6.47A55.42,55.42,0,0,0,223,350,72.71,72.71,0,0,0,210.53,347a97.15,97.15,0,0,0-13.15-1,71.2,71.2,0,0,0-13.15,1.13,75,75,0,0,0-12.35,3.2,71.69,71.69,0,0,0-19.8,10.82,57.6,57.6,0,0,0-11.23,11.32,27.93,27.93,0,0,0-2.35,3.8c-.22.47-.36.84-.45,1.09l-.1.37s.05-.12.12-.36a6.78,6.78,0,0,1,.47-1.09,24,24,0,0,1,2.42-3.73,59.87,59.87,0,0,1,11.37-11.08A73,73,0,0,1,172.1,351a73.87,73.87,0,0,1,12.26-3.14,69.56,69.56,0,0,1,13-1,97.64,97.64,0,0,1,13.05.91,73.26,73.26,0,0,1,12.32,2.84,57.2,57.2,0,0,1,10.8,4.82,46.87,46.87,0,0,1,8.51,6.3,44,44,0,0,1,9.45,12.69,30.59,30.59,0,0,1,1.68,4.13A12.71,12.71,0,0,1,253.62,380Z"/><path class="cls-2" d="M134,382.2l-6.87,13.45-11.26,4.89-3.44-7.84-2.2,6.62-8.83,2.2-1.22-7.09-2,5.87-18.13,8.81-3.2-5.38-.72,4.65-6.13,1-2.44-4.64-.24,5.13L50.94,421.59l-6.61-4.17.73,4.41s-15.19,4.9-28.9,24.22l-2-2.67-.73,2.67s-6.13-1.46-9.82,9.32c0,0-6.35-15.18-1-38.17l2.69.49L4.87,414s6.37-8.81,9.57-10.76l2,2.44v-4.16s10.53-9.79,14-12.22a11.18,11.18,0,0,0,2.22,4.4l-.51-6.62,12.5-5.38-1.39-4.6,7.53-3.48,4.6,3.91-1.42-5.4,14.36-2.81,5.25,3.07L72,369a132.1,132.1,0,0,1,19.35-1.64l4.07,3.39-.59-3.56S127.05,369.22,134,382.2Z"/><path class="cls-2" d="M134,382.2s-.62-.17-1.79-.44-2.91-.62-5.13-1-4.91-.75-8-1.11c-1.55-.15-3.21-.3-5-.43s-3.61-.22-5.53-.22l-3,0c-1,0-2,0-3.06.06-2.08,0-4.22.19-6.43.34-1.09.05-2.21.2-3.34.33s-2.27.26-3.41.41-2.3.42-3.48.6c-.58.1-1.17.22-1.76.31l-1.74.42-3.57.84c-1.16.32-2.35.7-3.54,1.06-2.39.69-4.75,1.54-7.1,2.45a137,137,0,0,0-14,6.36,121,121,0,0,0-24.77,17.17,89.92,89.92,0,0,0-16.74,20.22A70.55,70.55,0,0,0,8,438.92a73.45,73.45,0,0,0-2.71,7.64c-.59,2.15-1,3.86-1.25,5.05s-.39,1.79-.39,1.79.16-.62.43-1.79.69-2.87,1.34-5A68.71,68.71,0,0,1,8.22,439a75.46,75.46,0,0,1,4.85-9.28,82.9,82.9,0,0,1,7.23-10,96.71,96.71,0,0,1,9.59-9.94,120.17,120.17,0,0,1,24.69-17,135,135,0,0,1,13.87-6.35c2.34-.91,4.69-1.78,7.07-2.47,1.17-.35,2.33-.74,3.51-1.07l3.52-.84,1.75-.41,1.74-.32,3.45-.62c1.14-.17,2.27-.29,3.39-.45s2.22-.3,3.33-.37c2.19-.15,4.31-.36,6.39-.38,1-.05,2-.09,3-.11l3,0c1.92,0,3.76.12,5.51.16s3.42.24,5,.35c3.11.3,5.81.61,8,1s3.94.67,5.12.91S134,382.2,134,382.2Z"/><path class="cls-2" d="M67.16,410l.22-.15Z"/><path class="cls-2" d="M134.34,380.51l-3.87,13.25,12.42,17.1,6.42-3.62-3.2,5.76,5.12,13,3.43-1.08-2.35,3.84,5.35,20.12h5.57l-3.63,3.2,2.14,1.92-1.29,2.36.86,19.87,7.48.43-4.49,2.78,3.2,2.35-4.05,1.71-2.14,20.52,3.41-.64-1.49,1.71,2.34,2.79-2.34.63s-1.49,10.89-2.56,14.75c0,0,17.59-18.08,21.28-27.07l-1.85-3.29,3.5-.2s6.79-10.83,7.89-18.53l-2.37-3.68,3.3,1.47,1.29-5.87-2.22-3.31,3.13,1.28s4-12.84,3.86-20.17l-3.5-7.54,3.69,1.66s0-23.31-2.57-31.94c-4.41-3.29-5.52-3.66-5.52-3.66h4.79s-5.64-13.32-10.67-19.28C177.88,375.1,154,364.81,134.34,380.51Z"/><path class="cls-2" d="M161,522.42s1.64-2.12,4.14-6.11a126.42,126.42,0,0,0,9-17.23,128.24,128.24,0,0,0,8.09-26.26,114.4,114.4,0,0,0,1.68-31.43l-.44-4c-.21-1.36-.5-2.63-.73-4s-.6-2.62-.88-3.91-.65-2.58-1-3.86a98.77,98.77,0,0,0-5.3-14.58,70,70,0,0,0-7.39-12.52,54.14,54.14,0,0,0-9-9.44,48.67,48.67,0,0,0-4.73-3.36,39.58,39.58,0,0,0-4.63-2.41,34.76,34.76,0,0,0-8.1-2.47,34.4,34.4,0,0,0-5.44-.44c-1.24,0-1.91.08-1.91.08s.67,0,1.91-.05a32.75,32.75,0,0,1,5.41.54,34.53,34.53,0,0,1,8,2.58,41,41,0,0,1,9.2,5.86,52.2,52.2,0,0,1,8.79,9.42,71.85,71.85,0,0,1,7.24,12.47,96.08,96.08,0,0,1,5.23,14.5c.36,1.27.66,2.56,1,3.84l.86,3.88c.23,1.31.53,2.65.71,3.92l.44,4a115.45,115.45,0,0,1-1.57,31.24,130.85,130.85,0,0,1-7.86,26.21,129,129,0,0,1-8.7,17.34C162.62,520.27,161,522.42,161,522.42Z"/><g class="cls-3"><path class="cls-2" d="M163.16,425.33c0,1.18.6,2.14,1.33,2.14s1.33-1,1.33-2.14-.6-2.12-1.33-2.12S163.16,424.15,163.16,425.33Z"/><path class="cls-2" d="M159.7,409.35c0,1.47.72,2.67,1.59,2.67s1.61-1.2,1.61-2.67-.73-2.65-1.61-2.65S159.7,407.88,159.7,409.35Z"/></g><path class="cls-2" d="M133.41,381.33s-13.23-15.6-39.69-14.87l-.19-2.19-1.47,2.56-12.68-.54.19-4-2,2.94S62.46,362.61,55.49,363c-1.66-4-1.47-5.13-1.47-5.13l-1.48,4.4s-10.3,0-15.25,1.65c-2-3.3-2-4-2-4v3.67s-19.1,3.84-26.65,13.39a29.09,29.09,0,0,1,.92-6.06s-5,8.27-5.34,10.66c0,0-3.86-20,14.72-38.74l3.66.74-.91-2.2S35.07,331.6,47.21,330c4,3.66,4.78,4.39,4.78,4.39l-.18-5.68a125,125,0,0,1,14.51.55l2.75,4.22L70,330s14.89.17,25.37,4.05c2.94,4.39,3.69,5.29,3.69,5.29l.73-4.76s9.19,4.76,14.69,7.53c.92,4,1.47,5.88,1.47,5.88l1.48-3.87S129.56,354.9,133.41,381.33Z"/><path class="cls-2" d="M3.89,373.62A12.88,12.88,0,0,1,4.37,372a25.32,25.32,0,0,1,2-4.38,32.92,32.92,0,0,1,4.46-6,43.87,43.87,0,0,1,7.41-6.29A53.53,53.53,0,0,1,28.45,350a75.29,75.29,0,0,1,12.28-3.73,104,104,0,0,1,13.63-2.05,94.63,94.63,0,0,1,14.18.11,98.38,98.38,0,0,1,27.19,6.14,92,92,0,0,1,21.48,11.46,68.53,68.53,0,0,1,7.45,6.25,44,44,0,0,1,4.94,5.67,29.34,29.34,0,0,1,2.52,4.14c.45,1,.68,1.57.68,1.57l-.65-1.59a29.5,29.5,0,0,0-2.45-4.18,54.52,54.52,0,0,0-12.26-12.2A90.94,90.94,0,0,0,96,349.82a99.35,99.35,0,0,0-27.36-6.28,94.85,94.85,0,0,0-14.3-.06,105.26,105.26,0,0,0-13.7,2.12A64.27,64.27,0,0,0,18,354.93a42.71,42.71,0,0,0-7.36,6.46,35.18,35.18,0,0,0-4.38,6.15A28.72,28.72,0,0,0,4.33,372,14,14,0,0,0,3.89,373.62Z"/><g class="cls-3"><path class="cls-2" d="M87.64,356.4a2.71,2.71,0,1,0,2.65-3.25A3,3,0,0,0,87.64,356.4Z"/><path class="cls-2" d="M79.94,352.55c0,.52.27.93.6.93s.59-.41.59-.93-.26-.94-.59-.94S79.94,352,79.94,352.55Z"/><path class="cls-2" d="M78.91,339.39a1.24,1.24,0,0,0,1.21,1.28,1.28,1.28,0,0,0,0-2.55A1.25,1.25,0,0,0,78.91,339.39Z"/></g><path class="cls-2" d="M93.59,365l-.51.06.45-.78Z"/><path class="cls-2" d="M172.75,108.31,168.4,91.8l4.79-.44-4.79-1.74L161,65.73l4.78-2.17-6.87.9s-7.19-14.36-15.77-22.64l3.19-3.18L142.19,41s-10.34-14.51-15.71-17.56l2.18-4.62L125.18,22S116,2.44,107.05.55c0,0,12.84-.86,38.74,4.36l-.23,3.47,2.18-1.52s18.35,8.61,24.16,15.84a52.65,52.65,0,0,1,2.6,7.54l2-4.63s8.7,7.24,14.8,21.15c-1.74,4.62-1.45,6.07-1.45,6.07l3.48-4s17.11,20-4.35,86C175.36,112.51,172.75,108.31,172.75,108.31Z"/><path class="cls-2" d="M115.61,1.87a31.89,31.89,0,0,1,6.18,1.54,54.29,54.29,0,0,1,6.77,2.78,68.49,68.49,0,0,1,8.22,4.73c1.47.93,2.89,2,4.41,3.15s3,2.38,4.42,3.73,2.93,2.77,4.4,4.24c.75.75,1.42,1.55,2.15,2.33s1.47,1.57,2.13,2.42,1.39,1.69,2.1,2.53,1.34,1.77,2,2.65c1.37,1.76,2.57,3.67,3.86,5.57s2.4,3.89,3.62,5.85c1.07,2,2.21,4,3.24,6.13s2.08,4.14,3,6.25S174,60,174.78,62.11s1.65,4.25,2.4,6.34,1.41,4.21,2.08,6.27,1.2,4.15,1.8,6.15,1.12,4,1.59,5.91,1,3.81,1.4,5.64.77,3.61,1.11,5.31c.76,3.4,1.25,6.55,1.78,9.33.24,1.39.49,2.7.67,3.91s.33,2.32.49,3.33c.57,4,.9,6.31.9,6.31s-.28-2.3-.76-6.33c-.13-1-.27-2.13-.41-3.35s-.37-2.52-.59-3.92c-.45-2.78-.86-6-1.6-9.37q-.49-2.56-1-5.34c-.38-1.83-.88-3.72-1.32-5.67s-.93-3.93-1.51-5.95-1.14-4.09-1.78-6.18-1.37-4.17-2.08-6.3-1.58-4.24-2.37-6.39-1.77-4.25-2.67-6.38c-.43-1.08-1-2.11-1.46-3.17l-1.52-3.13c-1-2.09-2.22-4.11-3.29-6.16-1.24-2-2.37-4-3.66-5.88s-2.52-3.8-3.92-5.58c-.68-.89-1.34-1.8-2-2.67l-2.14-2.54c-.68-.86-1.42-1.65-2.14-2.43s-1.44-1.57-2.18-2.32c-1.52-1.46-3-2.92-4.51-4.21s-3.05-2.53-4.51-3.71-3-2.19-4.48-3.11-2.91-1.8-4.29-2.59-2.75-1.44-4.05-2a53.46,53.46,0,0,0-6.86-2.63A32.15,32.15,0,0,0,115.61,1.87Z"/><g class="cls-3"><path class="cls-2" d="M181.46,57.61c0,2.33,1.17,4.2,2.61,4.2s2.61-1.87,2.61-4.2-1.16-4.2-2.61-4.2S181.46,55.3,181.46,57.61Z"/><path class="cls-2" d="M169.4,73.59c.68,2.22,2.34,3.66,3.72,3.23s1.95-2.56,1.26-4.77-2.35-3.67-3.73-3.24S168.7,71.37,169.4,73.59Z"/></g><path class="cls-2" d="M191,135.45s13.34-23.52,21.48-28.16l-2-2.91,4.63.6s8.7-15.93,15.1-20l-4.65-4.32,5.51,2s1.45-2.9,7-3.77c-5.81-5.21-5.52-6.94-5.52-6.94l11,4.91s13.06-12.75,16.82-15.06a56.45,56.45,0,0,1-4.93-4.92L265.3,61l16.24-9.57-2.61-3.47,7,2.61S301,43.86,314.61,47c-7.54-11.58-27.85-25.2-60.34-21.14A59.24,59.24,0,0,1,256,31.69l-4.92-4.63s-9.59,1.44-23.21,11.58l2.89,4.63-4.35-1.16a30,30,0,0,0-7.54,9l2,2.61-7.26-.58a257.73,257.73,0,0,0-15.08,24.61l2.33,2.61h-3.19S186.09,103.38,191,135.45Z"/><g class="cls-3"><path class="cls-2" d="M231.72,46.48c-.73,1.53-.54,3.12.4,3.57s2.31-.41,3-1.93.56-3.1-.41-3.56S232.44,45,231.72,46.48Z"/><path class="cls-2" d="M226.3,57.22c-.44.93-.33,1.92.25,2.2s1.42-.26,1.86-1.18.33-1.91-.25-2.2S226.74,56.29,226.3,57.22Z"/><path class="cls-2" d="M247,60.76c-.89,1.84-.67,3.78.49,4.34s2.82-.5,3.69-2.34.66-3.79-.5-4.35S247.91,58.92,247,60.76Z"/></g><path class="cls-2" d="M189,134.8s.77-2.59,2.41-7.05,4.12-10.74,7.51-18.11a209.56,209.56,0,0,1,13.23-24.36,139,139,0,0,1,19.7-24.79,96.46,96.46,0,0,1,12.31-10.34,76,76,0,0,1,13.6-7.6,65.55,65.55,0,0,1,13.92-4.24,66.41,66.41,0,0,1,13-1.1,81.13,81.13,0,0,1,11,1c3.25.58,6.05,1.24,8.33,1.89l3,.89,2.2.76,1.85.63-1.82-.68c-.62-.2-1.33-.48-2.21-.79l-3-1a84.77,84.77,0,0,0-8.32-2,72.49,72.49,0,0,0-11.05-1.21,66.53,66.53,0,0,0-13.13,1,63.28,63.28,0,0,0-14.11,4.18,76.1,76.1,0,0,0-13.75,7.62,96,96,0,0,0-12.47,10.41,139.71,139.71,0,0,0-19.73,25c-2.71,4.3-5.14,8.58-7.29,12.72s-4.08,8.1-5.74,11.81c-3.34,7.42-5.68,13.79-7.21,18.27S189,134.8,189,134.8Z"/><path class="cls-2" d="M161.87,139.15s-6.1-10.87-16.08-14.33l.87-7-4.37,4.78s-10.44-8.26-16.08-9.57L127.5,107l-3.91,3s-9.58-3.91-15.23-4.78l-1.31-6.08-1.29,3.48S89.65,94.85,74,99.18c0,0,9.14-20,48.31-24.34,5.21,2.62,6.09,4.36,6.09,4.36l-.88-1.74s26.54,2.6,30,13.46l1.31-2.6,13.49,9.12.43,6.52L174.5,100s17,7.39,14.36,36.95C184.5,141.75,161.87,139.15,161.87,139.15Z"/><path class="cls-2" d="M189,134.8s-.92-1.93-2.87-5.11a99.75,99.75,0,0,0-8.95-12.59A92.48,92.48,0,0,0,161.36,102a73.86,73.86,0,0,0-10.52-6.52c-.93-.47-1.89-.92-2.86-1.38s-2-.82-2.94-1.25l-3-1.09-3-.94c-1-.31-2-.65-3.08-.9l-3.12-.77c-2.06-.55-4.17-.87-6.23-1.26L125,87.62l-1.56-.2c-1-.11-2.06-.25-3.08-.38-2.08-.18-4.1-.32-6.1-.42a77.72,77.72,0,0,0-11.56.47c-.93.11-1.82.19-2.71.33l-2.58.47c-.43.08-.86.16-1.28.22l-1.23.32c-.81.19-1.6.4-2.39.58-1.54.42-3,.95-4.38,1.39S85.47,91.46,84.28,92s-2.26,1.11-3.23,1.7-1.85,1.13-2.6,1.66l-2,1.51c-.57.43-1,.91-1.35,1.23-.73.68-1.12,1.06-1.12,1.06s.41-.36,1.13-1A18.34,18.34,0,0,1,76.51,97c.59-.44,1.27-.92,2-1.47s1.68-1,2.64-1.57,2.08-1,3.25-1.62,2.48-1,3.83-1.51,2.83-.92,4.38-1.3L95,88.94c.41-.1.81-.21,1.22-.29l1.26-.21,2.59-.42c.87-.14,1.76-.2,2.68-.3a87.45,87.45,0,0,1,11.45-.35c2,.11,4,.25,6.06.45,1,.13,2,.28,3,.4l1.54.21c.51.07,1,.17,1.54.28,2,.4,4.15.72,6.18,1.28l3.08.76c1,.27,2,.62,3,.92l3.05.93,3,1.06,2.91,1.21c.94.47,1.9.89,2.84,1.35a76.22,76.22,0,0,1,10.44,6.4,94.49,94.49,0,0,1,15.89,14.8,107.73,107.73,0,0,1,9.2,12.35C188,132.91,189,134.8,189,134.8Z"/><path class="cls-7" d="M148.28,110.35c2.11,2.19,4.71,3.12,5.81,2.07s.29-3.68-1.83-5.88-4.69-3.12-5.81-2.07S146.18,108.16,148.28,110.35Z"/><path class="cls-2" d="M187.77,138.8s7.26-26.17,58.09-27.17v4.63l3.48-3.47s10.44.58,30.74,12.16l-3.48,5.79,7-4.62s18.56,10.42,24.95,14.48l-1.18,5.79,4.07-2.32A67.61,67.61,0,0,1,334,171.87c-2.9,5.81,1.15,5.81,1.15,5.81s15.67,26.63-1.74,57.33c-6.95-17.94-18.28-27-18.28-27l2.82-6-3.62,2.41-10.89-14.89,2.42-4.83-4,1.2-18.95-17.3,2.42-8.46-4.84,5.64s-4.44-4.43-8.07-6v-4l-2.81,2.43s-15.32-11.27-23.38-13.29l-.81-5.64-2,2.83a46.86,46.86,0,0,0-20.56-3.63l-2-4.42-1.23,3.21S195.47,136.65,187.77,138.8Z"/><path class="cls-2" d="M188.86,137s.66-.54,2-1.45,3.25-2.19,5.82-3.65a82.4,82.4,0,0,1,9.61-4.64,85.6,85.6,0,0,1,13.2-4.11,73.51,73.51,0,0,1,16.21-1.82,76,76,0,0,1,18.07,2.14,82,82,0,0,1,18.2,6.83l4.39,2.4,4.31,2.62,4.19,2.81,4.06,3a112.83,112.83,0,0,1,14.83,13.6,116.7,116.7,0,0,1,11.83,15.47,119.84,119.84,0,0,1,14.16,31.45,104.87,104.87,0,0,1,4,24.11c.14,2.95,0,5.27-.06,6.85s-.21,2.42-.21,2.42.1-.84.26-2.4.24-3.92.16-6.88a102,102,0,0,0-3.71-24.24,117.82,117.82,0,0,0-14-31.72,116.45,116.45,0,0,0-11.87-15.6,114.43,114.43,0,0,0-14.89-13.75l-4.11-3-4.25-2.82L276.75,132l-4.44-2.4a82.25,82.25,0,0,0-18.4-6.84,75.32,75.32,0,0,0-18.25-2.06,74.55,74.55,0,0,0-16.32,2,81.36,81.36,0,0,0-22.77,9.09c-2.57,1.51-4.49,2.81-5.79,3.75S188.86,137,188.86,137Z"/><path class="cls-7" d="M283.19,148.26c1.09,2.28,3,3.64,4.22,3.05s1.38-2.92.3-5.19-3-3.64-4.23-3.06S282.11,146,283.19,148.26Z"/><path class="cls-2" d="M187.55,155.66s-12.62,9.56-17.41,10.86l-3.48-6.08.44,7.82-5.66,5.65-4.79-5.22,2.15,6.43S144,192,140,200.38c-3.25-1.88-4.38-2.38-4.38-2.38l1.37,3.87s-8.94,15.2-9.66,19.83c-6.23-3.77-8.71-4.5-8.71-4.5l2.91,6.22s-17.71,13.48-19.87,29.26c0,0-4.65-28.38,7.54-60.52l3.48-.87-.87-2.61s4.93-15.94,15.09-26.65l4.06.28-.88-4.05s13.38-15.64,16.55-19.08l5,1.93V138s13.71-9.44,39.37-2.5C194.08,141.75,187.55,155.66,187.55,155.66Z"/><path class="cls-2" d="M189.94,135.45a50.92,50.92,0,0,0-6.44,1c-2,.39-4.51,1-7.28,1.76a90.07,90.07,0,0,0-9.18,3.19,100.64,100.64,0,0,0-10.39,5,94.55,94.55,0,0,0-10.8,7,96.18,96.18,0,0,0-10.4,9,106,106,0,0,0-9.37,10.66L124,175.83c-.65,1-1.39,1.91-2,2.94s-1.24,2-1.87,3l-.93,1.51-.84,1.53a121,121,0,0,0-6,12.34l-1.23,3.06c-.41,1-.85,2-1.16,3-.68,2-1.34,4-2,5.95s-1.09,3.88-1.6,5.72c-.26.93-.53,1.84-.75,2.73s-.39,1.8-.58,2.66c-.38,1.73-.75,3.4-1.08,5s-.54,3.11-.76,4.55-.44,2.75-.65,4-.28,2.38-.4,3.41c-.47,4.12-.73,6.47-.73,6.47s.32-2.35.87-6.46c.15-1,.26-2.16.49-3.39s.46-2.56.73-4,.52-2.93.84-4.52.75-3.23,1.16-5c.21-.86.42-1.74.62-2.64s.5-1.79.77-2.72c.53-1.83,1.07-3.73,1.66-5.67s1.36-3.89,2.07-5.9,1.59-4,2.43-6a110.92,110.92,0,0,1,6-12.24l.83-1.53.94-1.48c.63-1,1.24-2,1.86-3s1.34-1.94,2-2.91l2.05-2.88a104.43,104.43,0,0,1,9.26-10.6,96.13,96.13,0,0,1,10.28-9c1.8-1.29,3.53-2.6,5.34-3.74s3.57-2.24,5.31-3.27a101.93,101.93,0,0,1,10.26-5.06,95.74,95.74,0,0,1,16.31-5.27A56.59,56.59,0,0,1,189.94,135.45Z"/><path class="cls-7" d="M153.9,160.86c-1.89,2.19-2.39,4.84-1.11,5.95s3.84.21,5.71-1.95,2.4-4.84,1.12-5.94S155.77,158.69,153.9,160.86Z"/><path class="cls-7" d="M146.2,167.22c-.53,1.18-.37,2.39.37,2.7s1.75-.33,2.27-1.49.37-2.38-.36-2.72S146.72,166.07,146.2,167.22Z"/><path class="cls-2" d="M193.44,138.07s25.93-11,43,19.16l-3.18.35,5.3,3.19-1.05,2.49s8.53,16.33,10.31,26.62l-4.63,1.06,4.27,2.84-2.13.35s6.74,3.55,3.55,23.42l-2.49.36,3.19,5.67-2.84,1.06s-1.78,24.49-11,44.35c-6.39-26.25-12.08-30.86-12.08-30.86l2.15-3.19L222.58,236l-6.05-18.1,2.84-1.42-6-3.19-3.91-8.52,3.56-3.2-6.4,2.13-12.44-27.32,3.56-6L192,174.62,183.84,159A19.76,19.76,0,0,1,193.44,138.07Z"/><path class="cls-2" d="M193.44,138.07a35.37,35.37,0,0,1,5.15,2.81,58.35,58.35,0,0,1,5.44,4,70.43,70.43,0,0,1,6.36,6,73.21,73.21,0,0,1,6.56,7.93c.55.75,1.08,1.51,1.62,2.27l1.53,2.41c.52.8,1,1.63,1.51,2.49s1,1.7,1.46,2.56c.91,1.79,1.91,3.56,2.73,5.44.41.94.84,1.88,1.27,2.82l1.17,2.9c.82,1.94,1.45,4,2.15,5.94s1.23,4.09,1.85,6.12,1,4.13,1.56,6.18.83,4.15,1.25,6.21.66,4.13,1,6.16.48,4.06.7,6c.07.51.12,1,.17,1.49s.08,1,.11,1.48c.07,1,.15,1.95.21,2.9s.15,1.91.22,2.85.08,1.87.11,2.78c.07,1.83.14,3.61.2,5.34s0,3.39,0,5c0,3.2-.12,6.13-.19,8.72-.06,1.31-.07,2.54-.13,3.64s-.15,2.17-.21,3.1c-.26,3.74-.41,5.86-.41,5.86s.2-2.12.54-5.84c.1-.93.2-2,.3-3.09s.14-2.34.22-3.64c.15-2.61.39-5.54.37-8.75,0-1.6.05-3.27.09-5s-.07-3.52-.13-5.35c0-.92-.06-1.85-.06-2.8s-.13-1.89-.18-2.86-.15-1.93-.2-2.91l-.09-1.49c-.07-.49-.11-1-.17-1.48-.23-2-.42-4-.68-6.08s-.63-4.11-.93-6.19-.84-4.16-1.25-6.24-1-4.16-1.54-6.24-1.19-4.13-1.89-6.14-1.37-4-2.19-6c-.41-1-.8-2-1.2-2.92s-.88-1.89-1.3-2.83c-.83-1.91-1.86-3.68-2.75-5.47a86.47,86.47,0,0,0-6.28-9.75,78.39,78.39,0,0,0-6.71-7.91,66.08,66.08,0,0,0-6.53-5.85,58.9,58.9,0,0,0-5.57-3.86A33.1,33.1,0,0,0,193.44,138.07Z"/><g class="cls-3"><path class="cls-2" d="M215.07,176.45c1.3,2.51,3.48,4,4.88,3.27s1.48-3.33.17-5.86-3.47-4-4.86-3.3S213.78,173.91,215.07,176.45Z"/><path class="cls-2" d="M210.39,169.69c0,.42.58.77,1.3.77s1.3-.35,1.3-.77-.59-.77-1.3-.77S210.39,169.26,210.39,169.69Z"/><path class="cls-2" d="M227.69,210.66c.62,2.35,2.15,4,3.42,3.63s1.78-2.51,1.17-4.84-2.17-4-3.43-3.63S227.05,208.32,227.69,210.66Z"/><path class="cls-2" d="M216.67,149.43c.45.77,1.17,1.18,1.57.94s.38-1.06-.06-1.82-1.15-1.17-1.57-.93S216.22,148.67,216.67,149.43Z"/></g><path class="cls-2" d="M207.58,148.18c.81.58,1.29,1,1.29,1A9.94,9.94,0,0,1,207.58,148.18Z"/><path class="cls-2" d="M254.55,583.75s4.07-17.67,18.57-17.67c-11-4.06-20,8.11-21.75,12.44a28.1,28.1,0,0,1,8.12-15.34,16.22,16.22,0,0,0-11.6,9.86c-.59-7.83,13.05-18.84,13.05-18.84s-11.88,2-14.79,11c0,0,2.91-15.07,8.12-17.66-7.82,1.44-9.57,12.16-9.57,12.16a32.14,32.14,0,0,1,2.9-17.66c-7.25,10.13-7.25,17.37-7.25,17.37s-4.93-9.85-10.45-14.49c0,0,6.66,12.46,7.25,23.18-3.46-8.69-12.76-8.4-12.76-8.4a27.38,27.38,0,0,1,6.67,16.8c-4.06-6.38-12.47-6.08-12.47-6.08s5.8,4.06,6.37,13.32Z"/><path class="cls-7" d="M235.3,581.6s0-.25.13-.7.19-1.08.26-1.85a21.89,21.89,0,0,0,.08-2.64,26.92,26.92,0,0,0-.28-3,20.65,20.65,0,0,0-.71-3c-.18-.47-.32-.91-.52-1.32s-.36-.79-.55-1.13-.41-.63-.58-.89-.37-.46-.49-.64l-.47-.54s.11.23.32.63c.09.19.25.43.36.71s.25.61.41.94.25.76.4,1.15.24.86.38,1.31.21.93.33,1.39.19,1,.26,1.49.17,1,.21,1.48.14,1,.17,1.45c.08.93.13,1.82.18,2.58s.08,1.4.08,1.85S235.3,581.6,235.3,581.6Z"/><path class="cls-7" d="M237.51,558.16s0,.09.07.25.1.4.19.68a8.27,8.27,0,0,1,.23,1.06c.07.41.18.88.25,1.4s.1,1.06.17,1.65a18.24,18.24,0,0,1,.11,1.86c0,.64.07,1.32,0,2s0,1.36-.08,2.06a12.56,12.56,0,0,1-.13,2c-.08.67-.15,1.33-.23,2S238,574.4,238,575s-.21,1.13-.3,1.65c-.18,1-.29,1.87-.39,2.48s-.13,1-.13,1,.12-.33.3-.92.43-1.42.69-2.42c.15-.51.28-1.07.46-1.64s.23-1.22.31-1.89.2-1.31.31-2a16,16,0,0,0,.15-2.08c0-.71,0-1.42.05-2.1s-.09-1.38-.12-2a12.26,12.26,0,0,0-.22-1.88c-.12-.59-.24-1.15-.33-1.68a11.4,11.4,0,0,0-.42-1.38,8.84,8.84,0,0,0-.38-1.05A7.85,7.85,0,0,0,237.51,558.16Z"/><path class="cls-7" d="M225.32,573.65a13.63,13.63,0,0,1,.86,1.14c.26.35.53.76.8,1.21a12.8,12.8,0,0,1,.75,1.43,15.28,15.28,0,0,1,1,2.86c0,.22.12.4.17.57s.06.33.1.44l.11.39s0-.14.06-.39a7.16,7.16,0,0,0,.07-1.06,6.25,6.25,0,0,0-.05-.73c0-.25-.07-.52-.15-.79a6,6,0,0,0-.23-.83c-.11-.27-.19-.57-.32-.84a11.65,11.65,0,0,0-.91-1.48,8.16,8.16,0,0,0-1.06-1.11A5,5,0,0,0,225.32,573.65Z"/><path class="cls-7" d="M242.23,558.37s-.08.34-.21,1-.34,1.47-.52,2.51-.42,2.28-.61,3.6-.34,2.72-.52,4.11c-.07.72-.14,1.42-.2,2.11S240,573,240,573.7c-.06,1.33-.06,2.57-.1,3.64s0,2,0,2.58,0,1,0,1,.07-.35.15-1,.21-1.5.32-2.55.27-2.29.38-3.6c0-.66.17-1.33.23-2s.17-1.4.24-2.11.15-1.39.21-2.09.12-1.38.2-2c.14-1.32.24-2.54.33-3.61s.15-1.94.2-2.56S242.23,558.37,242.23,558.37Z"/><path class="cls-7" d="M248.18,565.91a4.36,4.36,0,0,0-.41.61c-.27.4-.64,1-1,1.66s-.83,1.53-1.24,2.47a31.58,31.58,0,0,0-1.17,2.94c-.17.51-.32,1-.47,1.53s-.26,1-.37,1.53a20.47,20.47,0,0,0-.37,2.76c0,.39,0,.77,0,1.1s0,.62.06.84c0,.47.08.75.08.75l.08-.74a5,5,0,0,1,.1-.84c.06-.31.13-.66.19-1.06s.19-.8.26-1.25.23-.9.36-1.38c.27-1,.57-2,.91-3,.19-.49.33-1,.53-1.49l.53-1.43c.35-.94.69-1.79,1-2.54C247.79,566.91,248.18,565.91,248.18,565.91Z"/><path class="cls-7" d="M253,570.24a4.09,4.09,0,0,0-.42.32,3.82,3.82,0,0,0-.45.4c-.17.19-.36.35-.55.59s-.36.47-.57.72a8.76,8.76,0,0,0-.58.87c-.15.32-.38.62-.55,1s-.33.69-.47,1a10.69,10.69,0,0,0-.43,1.06c-.13.36-.22.71-.33,1a9.75,9.75,0,0,0-.44,1.91c-.18,1.12-.24,1.89-.24,1.89a18.06,18.06,0,0,0,.72-1.76c.09-.26.2-.55.3-.85l.38-.94c.14-.33.27-.65.4-1s.28-.67.43-1c.3-.68.58-1.36.92-2,.16-.29.28-.63.44-.89s.31-.54.43-.78.29-.46.4-.66a3,3,0,0,1,.31-.49C252.87,570.41,253,570.24,253,570.24Z"/><path class="cls-2" d="M205,585.48s0-12.09,5.44-21.2a27.27,27.27,0,0,0-9.36,15s-.3-17.14,1.54-21.07c-5.59,13.17-5.31,17.38-5.31,17.38s.36-20.5,1.38-26.43a154.38,154.38,0,0,0-6,28.07s-1.18-20.12-7-25.52c2.36,16.38,1.09,25.8,1.09,25.8s-4-16.26-17.13-21.69c3.93,5.21,7.3,18,7.3,18a26.88,26.88,0,0,0-18.27-8.8A50.48,50.48,0,0,1,172,581.43s-7.51-6.08-15.55-4.78c9.77,6.51,9.77,9.12,9.77,9.12Z"/><path class="cls-2" d="M197.27,575.16c0,.26,0,.41,0,.41A1.79,1.79,0,0,1,197.27,575.16Z"/><path class="cls-7" d="M176.12,562.86a27.19,27.19,0,0,1,1.65,2.77c.46.85,1,1.85,1.43,2.94a33.3,33.3,0,0,1,1.39,3.51c.23.59.38,1.2.59,1.81s.32,1.19.46,1.77.26,1.17.38,1.7.2,1,.29,1.53.16.91.22,1.3.07.73.12,1c.06.57.11.89.11.89s0-.32.05-.89c0-.28,0-.63,0-1a12.56,12.56,0,0,0-.05-1.33,11,11,0,0,0-.13-1.58c-.07-.56-.13-1.15-.26-1.74s-.23-1.24-.43-1.85-.33-1.27-.56-1.89a28.14,28.14,0,0,0-1.5-3.53c-.27-.55-.58-1-.84-1.55s-.58-.93-.88-1.32a19,19,0,0,0-1.45-1.87C176.37,563.09,176.12,562.86,176.12,562.86Z"/><path class="cls-7" d="M165.69,568l.68.49c.43.31,1,.79,1.74,1.37.34.3.71.6,1.1,1s.79.71,1.2,1.11.8.82,1.23,1.23.8.89,1.17,1.36.76.93,1.08,1.43.67,1,.92,1.46.55,1,.76,1.44.44.89.57,1.33.29.81.43,1.16.17.67.22.94c.12.51.21.81.21.81s0-.31-.05-.84c0-.28,0-.61-.08-1s-.15-.79-.25-1.24a8.33,8.33,0,0,0-.47-1.44,10.4,10.4,0,0,0-.66-1.56,13.74,13.74,0,0,0-.91-1.56c-.32-.53-.73-1-1.1-1.5s-.81-.94-1.24-1.38-.86-.87-1.31-1.24a20.58,20.58,0,0,0-2.53-1.9,21.36,21.36,0,0,0-1.94-1.11A6.35,6.35,0,0,0,165.69,568Z"/><path class="cls-7" d="M164.81,579.26s.37.32.92.73l1,.69c.34.25.7.49,1.05.77a3.86,3.86,0,0,1,.53.4,5.15,5.15,0,0,1,.5.4,7.8,7.8,0,0,1,.82.76c.12.12.21.25.29.34a1,1,0,0,1,.2.31l.18.27v-.34a1.54,1.54,0,0,0-.07-.38,1.79,1.79,0,0,0-.19-.46,3.66,3.66,0,0,0-.69-1,6.22,6.22,0,0,0-1-.94,8,8,0,0,0-2.3-1.2A6,6,0,0,0,164.81,579.26Z"/><path class="cls-7" d="M189,565.45v2.82c0,.83,0,1.8,0,2.84s0,2.15,0,3.25,0,2.22,0,3.26-.07,2-.1,2.84-.11,1.52-.15,2,0,.77,0,.77.08-.27.21-.74.3-1.14.48-2,.26-1.81.38-2.86.11-2.17.13-3.3,0-2.23-.12-3.29-.17-2-.29-2.85C189.23,566.56,189,565.45,189,565.45Z"/><path class="cls-7" d="M195.38,569.7s-.06.21-.13.59-.22.89-.31,1.52-.21,1.39-.3,2.19-.12,1.65-.18,2.51,0,1.74,0,2.54.1,1.57.16,2.22c0,.32.11.61.16.87s.1.47.15.67c.07.36.12.57.12.57s0-.22,0-.59,0-.91,0-1.56.06-1.37.09-2.18.05-1.64.1-2.5.06-1.71.09-2.5,0-1.55,0-2.19,0-1.19,0-1.57S195.38,569.7,195.38,569.7Z"/><path class="cls-7" d="M206.91,571a12.73,12.73,0,0,0-1,1.77,16.7,16.7,0,0,0-.84,1.91c-.31.7-.53,1.49-.78,2.24s-.41,1.58-.57,2.33c0,.38-.09.76-.12,1.11s-.08.67-.1,1a7.83,7.83,0,0,0,0,.84c0,.25,0,.48.06.64l.06.55s0-.18.1-.55c.05-.16.08-.38.13-.61a5.76,5.76,0,0,1,.16-.81c.15-.59.29-1.26.46-2s.41-1.49.65-2.25c.45-1.53.91-3.07,1.23-4.22S206.91,571,206.91,571Z"/><path class="cls-2" d="M122.88,586.22s0-12.11,5.44-21.24A27.32,27.32,0,0,0,119,580s-.31-17.14,1.54-21.07c-5.58,13.17-5.32,17.36-5.32,17.36s.38-20.49,1.38-26.41a154.85,154.85,0,0,0-6,28.07s-1.18-20.12-7-25.52c2.37,16.37,1.09,25.8,1.09,25.8S100.7,562,87.53,556.52c3.92,5.21,7.29,18,7.29,18a26.85,26.85,0,0,0-18.27-8.8,50.64,50.64,0,0,1,13.38,16.4s-7.51-6.08-15.56-4.78c9.78,6.5,9.78,9.13,9.78,9.13Z"/><path class="cls-2" d="M115.19,575.87c0,.26,0,.4,0,.4S115.18,576.15,115.19,575.87Z"/><path class="cls-7" d="M83.6,568.68l.7.49c.43.31,1,.8,1.74,1.38.33.31.71.6,1.11,1s.79.72,1.19,1.11.8.83,1.23,1.24.79.9,1.17,1.36.76.93,1.07,1.43a17.06,17.06,0,0,1,.93,1.47,13,13,0,0,1,.76,1.42c.2.48.44.9.57,1.33s.3.83.42,1.16.17.67.23.94c.12.52.21.82.21.82s0-.31-.05-.85c0-.26,0-.59-.08-1s-.14-.78-.25-1.24a12.3,12.3,0,0,0-1.14-3,9.87,9.87,0,0,0-.92-1.55,13.66,13.66,0,0,0-1.08-1.52c-.4-.47-.82-.93-1.24-1.38s-.87-.85-1.31-1.24a21.49,21.49,0,0,0-2.53-1.89,19.14,19.14,0,0,0-2-1.11A5.46,5.46,0,0,0,83.6,568.68Z"/><path class="cls-7" d="M82.74,580s.37.31.93.73c.27.2.59.44.94.68s.72.49,1.06.78a3.78,3.78,0,0,1,.54.4l.5.39a8.75,8.75,0,0,1,.81.77c.12.12.2.24.29.34a2.58,2.58,0,0,1,.2.3,2.36,2.36,0,0,1,.17.27s0-.12,0-.33a1.08,1.08,0,0,0,0-.38,2.5,2.5,0,0,0-.18-.47,3.56,3.56,0,0,0-.7-1.05,7.18,7.18,0,0,0-1-.93,8.33,8.33,0,0,0-2.31-1.21A4.78,4.78,0,0,0,82.74,580Z"/><path class="cls-7" d="M106.89,566.17V569c0,.82,0,1.8,0,2.83s0,2.14,0,3.26,0,2.21-.06,3.25-.08,2-.09,2.84-.12,1.52-.16,2,0,.78,0,.78.08-.26.2-.75.31-1.15.5-2,.25-1.81.36-2.86.12-2.17.14-3.29,0-2.24-.11-3.3-.17-2-.3-2.84A27,27,0,0,0,106.89,566.17Z"/><path class="cls-7" d="M113.31,570.42s-.06.21-.14.59-.21.88-.3,1.51-.21,1.4-.3,2.2-.13,1.65-.19,2.52,0,1.71,0,2.53.11,1.58.18,2.21a8.26,8.26,0,0,0,.16.88c0,.25.1.48.13.66.07.38.13.58.13.58s0-.23,0-.58,0-.92,0-1.57.07-1.38.08-2.18.06-1.65.12-2.5,0-1.7.08-2.51,0-1.54,0-2.19,0-1.18,0-1.55S113.31,570.42,113.31,570.42Z"/><path class="cls-7" d="M124.85,571.72a17.58,17.58,0,0,0-1,1.78c-.27.55-.55,1.19-.84,1.91s-.51,1.48-.76,2.25-.38,1.57-.57,2.32c-.06.39-.09.75-.12,1.1s-.08.68-.1,1a3.72,3.72,0,0,0,0,.83c0,.26,0,.47,0,.64,0,.36.06.56.06.56s0-.2.1-.55c0-.18.08-.38.13-.62s.07-.51.15-.8c.16-.58.32-1.26.47-2s.41-1.48.64-2.25c.46-1.53.91-3.08,1.26-4.22S124.85,571.72,124.85,571.72Z"/></g></g></g></svg>