<svg width="571" height="426" viewBox="0 0 571 426" fill="none" xmlns="http://www.w3.org/2000/svg">
<g style="mix-blend-mode:screen">
<mask id="mask0_932_262" style="mask-type:luminance" maskUnits="userSpaceOnUse" x="-163" y="0" width="734" height="600">
<path d="M570.3 0H-163V599.07H570.3V0Z" fill="white"/>
</mask>
<g mask="url(#mask0_932_262)">
<mask id="mask1_932_262" style="mask-type:luminance" maskUnits="userSpaceOnUse" x="96" y="78" width="475" height="473">
<path d="M166.911 550.62L96.9609 480.35L98.511 478.81L431.561 147.65L362.801 78.5703H570.311V287.02L501.521 217.92L166.921 550.62H166.911ZM103.121 480.37L166.921 544.46L501.521 211.76L565.941 276.47V82.9303H373.271L437.711 147.67L436.161 149.21L103.121 480.38V480.37Z" fill="white"/>
</mask>
<g mask="url(#mask1_932_262)">
<path d="M451.958 -126.401L-107.451 196.574L215.289 755.576L774.698 432.601L451.958 -126.401Z" fill="url(#paint0_linear_932_262)"/>
</g>
<mask id="mask2_932_262" style="mask-type:luminance" maskUnits="userSpaceOnUse" x="-88" y="0" width="391" height="389">
<path d="M-29.4109 388.38L-87.3809 330.15L-85.8309 328.61L187.239 57.08L130.409 0H302.049V172.42L245.199 115.31L-29.4209 388.38H-29.4109ZM-81.2109 330.17L-29.3909 382.22L245.229 109.15L297.709 161.87V4.36H140.909L193.419 57.1L191.869 58.64L-81.2109 330.17Z" fill="white"/>
</mask>
<g mask="url(#mask2_932_262)">
<path d="M204.698 -168.625L-255.551 97.0996L9.97922 557.011L470.228 291.286L204.698 -168.625Z" fill="url(#paint1_linear_932_262)"/>
</g>
<mask id="mask3_932_262" style="mask-type:luminance" maskUnits="userSpaceOnUse" x="130" y="199" width="158" height="157">
<path d="M154.151 355.669L130.711 332.119L240.981 222.479L218.051 199.439H287.371V269.079L264.421 246.029L154.151 355.669ZM133.521 332.129L154.161 352.859L264.431 243.219L285.381 264.269V201.429H222.821L243.791 222.489L133.521 332.129Z" fill="white"/>
</mask>
<g mask="url(#mask3_932_262)">
<path d="M248.205 131.608L63.0664 238.498L169.881 423.507L355.02 316.617L248.205 131.608Z" fill="url(#paint2_linear_932_262)"/>
</g>
<mask id="mask4_932_262" style="mask-type:luminance" maskUnits="userSpaceOnUse" x="-163" y="273" width="327" height="327">
<path d="M-113.99 599.07L-163 549.83L66.83 321.3L18.92 273.17H163.78V418.69L115.84 370.54L-113.99 599.07ZM-156.84 549.85L-113.98 592.91L115.85 364.38L159.41 408.14V277.54H29.39L72.98 321.33L-156.85 549.86L-156.84 549.85Z" fill="white"/>
</mask>
<g mask="url(#mask4_932_262)">
<path d="M82.081 131.679L-304.123 354.654L-81.313 740.573L304.891 517.598L82.081 131.679Z" fill="url(#paint3_linear_932_262)"/>
</g>
</g>
</g>
<defs>
<linearGradient id="paint0_linear_932_262" x1="92.7238" y1="462.88" x2="621.701" y2="157.475" gradientUnits="userSpaceOnUse">
<stop/>
<stop offset="0.15" stop-color="#202020"/>
<stop offset="0.49" stop-color="#747474"/>
<stop offset="0.98" stop-color="#F9F9F9"/>
<stop offset="1" stop-color="white"/>
</linearGradient>
<linearGradient id="paint1_linear_932_262" x1="-109.365" y1="306.009" x2="325.674" y2="54.8386" gradientUnits="userSpaceOnUse">
<stop/>
<stop offset="0.15" stop-color="#202020"/>
<stop offset="0.49" stop-color="#747474"/>
<stop offset="0.98" stop-color="#F9F9F9"/>
<stop offset="1" stop-color="white"/>
</linearGradient>
<linearGradient id="paint2_linear_932_262" x1="124.397" y1="324.177" x2="299.343" y2="223.172" gradientUnits="userSpaceOnUse">
<stop/>
<stop offset="0.15" stop-color="#202020"/>
<stop offset="0.49" stop-color="#747474"/>
<stop offset="0.98" stop-color="#F9F9F9"/>
<stop offset="1" stop-color="white"/>
</linearGradient>
<linearGradient id="paint3_linear_932_262" x1="-167.617" y1="534.93" x2="197.265" y2="324.265" gradientUnits="userSpaceOnUse">
<stop/>
<stop offset="0.15" stop-color="#202020"/>
<stop offset="0.49" stop-color="#747474"/>
<stop offset="0.98" stop-color="#F9F9F9"/>
<stop offset="1" stop-color="white"/>
</linearGradient>
</defs>
</svg>
