<svg width="215" height="158" viewBox="0 0 215 158" fill="none" xmlns="http://www.w3.org/2000/svg">
<path opacity="0.1" d="M92.9929 0.0215561C92.9541 23.8368 92.9671 56.0762 92.9585 79.9776H52.4717C52.407 87.2248 53.6616 93.9589 56.6191 100.387C61.7322 111.501 71.0402 117.119 82.3658 120.063C85.763 120.943 89.2163 121.603 92.8119 122.4V157.787C88.5394 157.787 84.6162 157.524 80.5938 157.045C60.5337 154.674 42.5473 147.366 27.3804 133.846C10.351 118.667 0.849049 99.6196 0.267033 76.7701C-0.263248 55.8778 0.159253 34.9641 0.163564 14.0589C0.163564 11.2092 0.18512 4.88031 0.172186 0C28.0486 0.0388011 65.6511 0.0344898 92.9929 0.0215561Z" fill="white"/>
<path opacity="0.1" d="M214.956 0.0215562C214.917 23.8368 214.93 56.0762 214.922 79.9777H174.434C174.369 87.2248 175.624 93.959 178.581 100.387C183.695 111.501 193.003 117.119 204.329 120.063C207.726 120.943 211.179 121.603 214.775 122.4V157.787C210.502 157.787 206.579 157.524 202.557 157.045C182.496 154.674 164.509 147.367 149.342 133.846C132.312 118.667 122.81 99.6196 122.228 76.7701C121.698 55.8779 122.12 34.9641 122.124 14.0589C122.124 11.2092 122.146 4.88031 122.133 0C150.01 0.0388011 187.614 0.0344899 214.956 0.0215562Z" fill="white"/>
</svg>
