<svg xmlns="http://www.w3.org/2000/svg" xmlns:xlink="http://www.w3.org/1999/xlink" viewBox="0 0 330.13 330.13">
  <defs>
    <style>
      .cls-1 {
        fill: url(#radial-gradient);
      }

      .cls-2 {
        fill: url(#radial-gradient-2);
      }

      .cls-3 {
        fill: url(#radial-gradient-3);
      }

      .cls-4 {
        fill: url(#radial-gradient-4);
      }

      .cls-5 {
        fill: url(#radial-gradient-5);
      }

      .cls-6 {
        fill: url(#radial-gradient-6);
      }

      .cls-7 {
        fill: url(#radial-gradient-7);
      }

      .cls-8 {
        fill: url(#radial-gradient-8);
      }

      .cls-9 {
        fill: url(#radial-gradient-9);
      }

      .cls-10 {
        fill: url(#radial-gradient-10);
      }

      .cls-11 {
        fill: url(#radial-gradient-11);
      }

      .cls-12 {
        fill: url(#radial-gradient-12);
      }

      .cls-13 {
        fill: url(#radial-gradient-13);
      }

      .cls-14 {
        fill: url(#radial-gradient-14);
      }

      .cls-15 {
        fill: url(#radial-gradient-15);
      }

      .cls-16 {
        fill: url(#radial-gradient-16);
      }

      .cls-17 {
        fill: url(#radial-gradient-17);
      }

      .cls-18 {
        fill: url(#radial-gradient-18);
      }

      .cls-19 {
        fill: url(#radial-gradient-19);
      }

      .cls-20 {
        fill: url(#radial-gradient-20);
      }

      .cls-21 {
        fill: url(#radial-gradient-21);
      }

      .cls-22 {
        fill: url(#radial-gradient-22);
      }

      .cls-23 {
        fill: url(#radial-gradient-23);
      }

      .cls-24 {
        fill: url(#radial-gradient-24);
      }

      .cls-25 {
        fill: url(#radial-gradient-25);
      }
    </style>
    <radialGradient id="radial-gradient" cx="165.07" cy="165.07" r="51.64" gradientUnits="userSpaceOnUse">
      <stop offset="0" stop-color="#43a9df"/>
      <stop offset="0.97" stop-color="#00589b"/>
    </radialGradient>
    <radialGradient id="radial-gradient-2" cx="165.07" cy="165.07" r="36.47" xlink:href="#radial-gradient"/>
    <radialGradient id="radial-gradient-3" cx="142.73" cy="73.33" r="51.66" xlink:href="#radial-gradient"/>
    <radialGradient id="radial-gradient-4" cx="85.62" cy="115.43" r="51.74" xlink:href="#radial-gradient"/>
    <radialGradient id="radial-gradient-5" cx="74.52" cy="205.86" r="52.54" xlink:href="#radial-gradient"/>
    <radialGradient id="radial-gradient-6" cx="140.97" cy="250.43" r="51.11" xlink:href="#radial-gradient"/>
    <radialGradient id="radial-gradient-7" cx="221.65" cy="246.69" r="53.77" xlink:href="#radial-gradient"/>
    <radialGradient id="radial-gradient-8" cx="253.89" cy="164.77" r="50.65" xlink:href="#radial-gradient"/>
    <radialGradient id="radial-gradient-9" cx="234.22" cy="95.38" r="52.99" xlink:href="#radial-gradient"/>
    <radialGradient id="radial-gradient-10" cx="165.07" cy="165.07" r="155.94" xlink:href="#radial-gradient"/>
    <radialGradient id="radial-gradient-11" cx="165.07" cy="165.07" r="165.07" xlink:href="#radial-gradient"/>
    <radialGradient id="radial-gradient-12" cx="60.86" cy="60.86" r="51.72" xlink:href="#radial-gradient"/>
    <radialGradient id="radial-gradient-13" cx="60.86" cy="269.28" r="51.72" xlink:href="#radial-gradient"/>
    <radialGradient id="radial-gradient-14" cx="269.28" cy="269.28" r="51.72" xlink:href="#radial-gradient"/>
    <radialGradient id="radial-gradient-15" cx="269.28" cy="60.86" r="51.72" xlink:href="#radial-gradient"/>
    <radialGradient id="radial-gradient-16" cx="242.97" cy="38.84" r="8.9" xlink:href="#radial-gradient"/>
    <radialGradient id="radial-gradient-17" cx="198.6" cy="53.05" r="13.27" xlink:href="#radial-gradient"/>
    <radialGradient id="radial-gradient-18" cx="146.09" cy="103.48" r="7.25" xlink:href="#radial-gradient"/>
    <radialGradient id="radial-gradient-19" cx="38.84" cy="87.15" r="8.89" xlink:href="#radial-gradient"/>
    <radialGradient id="radial-gradient-20" cx="65.11" cy="149.36" r="11.47" xlink:href="#radial-gradient"/>
    <radialGradient id="radial-gradient-21" cx="114.65" cy="191.28" r="6.11" xlink:href="#radial-gradient"/>
    <radialGradient id="radial-gradient-22" cx="93" cy="289.95" r="13.13" xlink:href="#radial-gradient"/>
    <radialGradient id="radial-gradient-23" cx="163.67" cy="251.79" r="9.93" xlink:href="#radial-gradient"/>
    <radialGradient id="radial-gradient-24" cx="285.84" cy="227.45" r="20.46" xlink:href="#radial-gradient"/>
    <radialGradient id="radial-gradient-25" cx="238.8" cy="155.11" r="8.54" xlink:href="#radial-gradient"/>
  </defs>
  <g id="Layer_2" data-name="Layer 2">
    <g id="_ÎÓÈ_1" data-name="—ÎÓÈ_1">
      <g>
        <path class="cls-1" d="M165.07,216.71a51.64,51.64,0,1,1,51.64-51.64A51.7,51.7,0,0,1,165.07,216.71Zm0-100.28a48.64,48.64,0,1,0,48.64,48.64A48.7,48.7,0,0,0,165.07,116.43Z"/>
        <path class="cls-2" d="M165.07,201.54a36.47,36.47,0,1,1,36.47-36.47A36.51,36.51,0,0,1,165.07,201.54Zm0-69.94a33.47,33.47,0,1,0,33.47,33.47A33.5,33.5,0,0,0,165.07,131.6Z"/>
        <path class="cls-3" d="M192,124.3a1.5,1.5,0,0,1-.81-.24,48.47,48.47,0,0,0-26.14-7.63,49.61,49.61,0,0,0-6.1.39,1.49,1.49,0,0,1-1.64-1.13c-3.33-13.53-15.94-40-62.89-65a7.62,7.62,0,0,1,1.34-14l43.57-13.3A23.29,23.29,0,0,1,162,28.64C177.19,42.83,201.45,74,193.5,123a1.49,1.49,0,0,1-.87,1.13A1.59,1.59,0,0,1,192,124.3Zm-27-10.87a51.4,51.4,0,0,1,25.81,6.92c6.66-46.43-16.4-75.95-30.91-89.52a20.29,20.29,0,0,0-19.74-4.6L96.66,39.53a4.62,4.62,0,0,0-.81,8.5C142.41,72.87,156,99.34,159.91,113.7A50.86,50.86,0,0,1,165.07,113.43Z"/>
        <path class="cls-4" d="M28.52,149.61a7.63,7.63,0,0,1-7-10.43L38.24,96.82A23.31,23.31,0,0,1,56.5,82.39c20.55-3,60-2.58,93.43,34.24a1.5,1.5,0,0,1-.62,2.43A48.49,48.49,0,0,0,127,134.74a47.65,47.65,0,0,0-3.49,5,1.5,1.5,0,0,1-1.91.58C109,134.5,80.46,127.87,31.6,149A7.68,7.68,0,0,1,28.52,149.61ZM72.14,84.25a105,105,0,0,0-15.2,1.11A20.3,20.3,0,0,0,41,97.92L24.27,140.28a4.61,4.61,0,0,0,6.14,5.93c48.45-20.92,77.61-15,91.28-9.14a50.61,50.61,0,0,1,3-4.2A51.51,51.51,0,0,1,146.2,117C121.08,90.32,92.71,84.25,72.14,84.25Z"/>
        <path class="cls-5" d="M61.85,265a7.47,7.47,0,0,1-6.55-3.83L32.63,221.67a23.33,23.33,0,0,1,.11-23.27c10.45-18,35.4-48.53,85-51.7a1.49,1.49,0,0,1,1.51,2,48.44,48.44,0,0,0,.12,33.05,1.5,1.5,0,0,1-.74,1.85C106.2,189.86,83.23,208,69.26,259.38a7.52,7.52,0,0,1-6.4,5.57A7,7,0,0,1,61.85,265Zm53.87-115.16c-46.74,3.83-70.39,32.89-80.39,50a20.3,20.3,0,0,0-.09,20.27L57.9,259.7a4.62,4.62,0,0,0,8.47-1.11c13.85-50.92,36.64-70,49.76-77.06a49.79,49.79,0,0,1-1.41-5A51.56,51.56,0,0,1,115.72,149.86Z"/>
        <path class="cls-6" d="M173,310.91a8.31,8.31,0,0,1-1.21-.09l-45-6.92a23.32,23.32,0,0,1-18.13-14.59c-7.51-19.37-15.87-57.94,12.59-98.71a1.45,1.45,0,0,1,1.27-.64,1.5,1.5,0,0,1,1.24.71,48.31,48.31,0,0,0,25.91,20.51,1.51,1.51,0,0,1,1,1.73c-2.87,13.64-3,42.92,28.45,85.86a7.53,7.53,0,0,1,.37,8.48A7.45,7.45,0,0,1,173,310.91ZM122.41,194.16c-26.15,38.94-18.18,75.55-11,94.06a20.33,20.33,0,0,0,15.8,12.72l45,6.91a4.62,4.62,0,0,0,4.42-7.3c-31.18-42.58-31.92-72.33-29.23-87a48.89,48.89,0,0,1-4.76-2A51.31,51.31,0,0,1,122.41,194.16Z"/>
        <path class="cls-7" d="M234,287.72a22.93,22.93,0,0,1-6.94-1.06c-19.83-6.2-55.19-23.72-69.33-71.39a1.49,1.49,0,0,1,.3-1.39,1.48,1.48,0,0,1,1.32-.52,48.46,48.46,0,0,0,26.87-4.47,47.62,47.62,0,0,0,5.32-3,1.5,1.5,0,0,1,2,.31c8.88,10.74,31.7,29.09,84.87,31.29a7.62,7.62,0,0,1,4.87,13.21l-33.48,30.89A23.27,23.27,0,0,1,234,287.72Zm-72.73-71.16c14.14,44.72,47.73,61.31,66.68,67.24a20.31,20.31,0,0,0,19.79-4.42l33.48-30.89a4.52,4.52,0,0,0,1.2-5,4.57,4.57,0,0,0-4.16-3c-52.73-2.17-76.45-20.13-86.21-31.37a48.08,48.08,0,0,1-4.53,2.48A51.46,51.46,0,0,1,161.22,216.56Z"/>
        <path class="cls-8" d="M240.94,210.52a108.91,108.91,0,0,1-41.22-8.38,1.5,1.5,0,0,1-.49-2.46,48.31,48.31,0,0,0,14.23-29.82,1.5,1.5,0,0,1,1.47-1.35c13.93-.24,42.51-6.64,77.37-46.84a7.62,7.62,0,0,1,13.37,4.42L309,171.53a23.35,23.35,0,0,1-10.2,20.93C287.12,200.32,267,210.52,240.94,210.52Zm-38-10.34c43.79,16.83,77.7.91,94.15-10.21A20.29,20.29,0,0,0,306,171.75l-3.27-45.44a4.62,4.62,0,0,0-8.11-2.68C260,163.5,231.16,170.84,216.3,171.47a50.44,50.44,0,0,1-.89,5.09A51.35,51.35,0,0,1,202.92,200.18Z"/>
        <path class="cls-9" d="M214.92,161.29a1.56,1.56,0,0,1-.69-.17,1.49,1.49,0,0,1-.8-1.18A48.33,48.33,0,0,0,199,130.22a1.49,1.49,0,0,1-.14-2c8.5-11,21.31-37.38,11.62-89.7a7.61,7.61,0,0,1,11.79-7.69l37.57,25.77a23.3,23.3,0,0,1,10,21c-1.63,20.71-10.84,59.09-54.17,83.47A1.49,1.49,0,0,1,214.92,161.29ZM202,129c1.23,1.26,2.38,2.56,3.42,3.86a51.57,51.57,0,0,1,10.69,24.49c40.45-23.74,49.15-60.17,50.71-80a20.32,20.32,0,0,0-8.71-18.31L220.56,33.31A4.62,4.62,0,0,0,213.42,38C223,89.87,210.79,117,202,129Z"/>
        <path class="cls-10" d="M165.07,321c-86,0-155.94-69.95-155.94-155.93S79.08,9.13,165.07,9.13,321,79.08,321,165.07,251.05,321,165.07,321Zm0-308.87c-84.33,0-152.94,68.61-152.94,152.94S80.74,318,165.07,318,318,249.4,318,165.07,249.4,12.13,165.07,12.13Z"/>
        <path class="cls-11" d="M165.07,330.13c-91,0-165.07-74-165.07-165.06S74.05,0,165.07,0,330.13,74.05,330.13,165.07,256.09,330.13,165.07,330.13ZM165.07,3C75.7,3,3,75.7,3,165.07S75.7,327.13,165.07,327.13s162.06-72.7,162.06-162.06S254.43,3,165.07,3Zm0,318c-86,0-155.94-69.95-155.94-155.93S79.08,9.13,165.07,9.13,321,79.08,321,165.07,251.05,321,165.07,321Zm0-308.87c-84.33,0-152.94,68.61-152.94,152.94S80.74,318,165.07,318,318,249.4,318,165.07,249.4,12.13,165.07,12.13Z"/>
        <path class="cls-12" d="M10.63,112.58l-.25,0a1.5,1.5,0,0,1-1.25-1.48V31.83a22.73,22.73,0,0,1,22.7-22.7h79.25a1.5,1.5,0,0,1,.49,2.92A161.45,161.45,0,0,0,69.11,34.48a1.5,1.5,0,0,1-.89.29H55A20.27,20.27,0,0,0,34.77,55v13.2a1.5,1.5,0,0,1-.29.89,161.45,161.45,0,0,0-22.43,42.46A1.52,1.52,0,0,1,10.63,112.58ZM31.83,12.13a19.73,19.73,0,0,0-19.7,19.7v71A164.83,164.83,0,0,1,31.77,67.73V55A23.28,23.28,0,0,1,55,31.77H67.73a164.83,164.83,0,0,1,35.14-19.64Zm-4.2,23.4a8.75,8.75,0,1,1,8.75-8.75A8.76,8.76,0,0,1,27.63,35.53Zm0-14.5a5.75,5.75,0,1,0,5.75,5.75A5.76,5.76,0,0,0,27.63,21Z"/>
        <path class="cls-13" d="M111.08,321H31.83a22.73,22.73,0,0,1-22.7-22.7V219.06a1.5,1.5,0,0,1,2.92-.5A161.5,161.5,0,0,0,34.48,261a1.48,1.48,0,0,1,.29.89v13.2A20.27,20.27,0,0,0,55,295.36h13.2a1.5,1.5,0,0,1,.89.29,161.77,161.77,0,0,0,42.46,22.44,1.5,1.5,0,0,1-.49,2.91ZM12.13,227.26v71A19.72,19.72,0,0,0,31.83,318h71a164.83,164.83,0,0,1-35.14-19.64H55a23.27,23.27,0,0,1-23.25-23.24V262.41A164.9,164.9,0,0,1,12.13,227.26Zm14.65,84a8.75,8.75,0,1,1,8.75-8.75A8.77,8.77,0,0,1,26.78,311.25Zm0-14.5a5.75,5.75,0,1,0,5.75,5.75A5.76,5.76,0,0,0,26.78,296.75Z"/>
        <path class="cls-14" d="M298.3,321H219.06a1.5,1.5,0,0,1-.5-2.91A161.68,161.68,0,0,0,261,295.65a1.48,1.48,0,0,1,.89-.29h13.2a20.26,20.26,0,0,0,20.24-20.24v-13.2a1.48,1.48,0,0,1,.29-.89,161.68,161.68,0,0,0,22.44-42.47,1.5,1.5,0,0,1,2.91.5V298.3A22.72,22.72,0,0,1,298.3,321Zm-71-3h71A19.72,19.72,0,0,0,318,298.3v-71a164.9,164.9,0,0,1-19.64,35.15v12.71a23.27,23.27,0,0,1-23.24,23.24H262.41A164.9,164.9,0,0,1,227.26,318Zm75.24-5.9a8.75,8.75,0,1,1,8.75-8.75A8.76,8.76,0,0,1,302.5,312.1Zm0-14.5a5.75,5.75,0,1,0,5.75,5.75A5.76,5.76,0,0,0,302.5,297.6Z"/>
        <path class="cls-15" d="M319.5,112.58a1.49,1.49,0,0,1-1.41-1,161.77,161.77,0,0,0-22.44-42.46,1.5,1.5,0,0,1-.29-.89V55a20.27,20.27,0,0,0-20.24-20.25h-13.2a1.48,1.48,0,0,1-.89-.29,161.35,161.35,0,0,0-42.47-22.43,1.5,1.5,0,0,1,.5-2.92H298.3A22.73,22.73,0,0,1,321,31.83v79.25a1.5,1.5,0,0,1-1.25,1.48ZM298.36,67.73A164.59,164.59,0,0,1,318,102.87v-71a19.73,19.73,0,0,0-19.7-19.7h-71a164.9,164.9,0,0,1,35.15,19.64h12.71A23.27,23.27,0,0,1,298.36,55Zm5-31.35a8.75,8.75,0,1,1,8.75-8.75A8.76,8.76,0,0,1,303.35,36.38Zm0-14.5a5.75,5.75,0,1,0,5.75,5.75A5.76,5.76,0,0,0,303.35,21.88Z"/>
        <path class="cls-16" d="M232,40.87a1.5,1.5,0,0,1-.23-3A87,87,0,0,1,254,37.23a1.5,1.5,0,1,1-.29,3,84.73,84.73,0,0,0-21.47.64Z"/>
        <path class="cls-17" d="M184.18,63a1.48,1.48,0,0,1-1.18-.58,1.5,1.5,0,0,1,.25-2.1,117.08,117.08,0,0,1,29.23-17.1,1.5,1.5,0,0,1,1.1,2.79A114.29,114.29,0,0,0,185.1,62.67,1.51,1.51,0,0,1,184.18,63Z"/>
        <path class="cls-18" d="M141.48,111.72a1.57,1.57,0,0,1-.8-.23,1.49,1.49,0,0,1-.46-2.07c2.94-4.64,6.05-9.2,9.27-13.56a1.5,1.5,0,1,1,2.41,1.78c-3.17,4.3-6.25,8.8-9.15,13.38A1.49,1.49,0,0,1,141.48,111.72Z"/>
        <path class="cls-19" d="M39.36,99.56a1.51,1.51,0,0,1-1.48-1.27,87.16,87.16,0,0,1-.65-22.19,1.5,1.5,0,1,1,3,.29,84.41,84.41,0,0,0,.64,21.43,1.5,1.5,0,0,1-1.25,1.72Z"/>
        <path class="cls-20" d="M74.16,161.67a1.49,1.49,0,0,1-1-.44,150.38,150.38,0,0,1-18.29-21.84,1.5,1.5,0,0,1,2.49-1.69,147.91,147.91,0,0,0,17.91,21.41,1.5,1.5,0,0,1,0,2.12A1.53,1.53,0,0,1,74.16,161.67Z"/>
        <path class="cls-21" d="M120.28,196.16a1.54,1.54,0,0,1-.74-.19c-3.73-2.1-7.54-4.39-11.33-6.82a1.5,1.5,0,0,1,1.63-2.53c3.73,2.4,7.49,4.67,11.17,6.73a1.5,1.5,0,0,1-.73,2.81Z"/>
        <path class="cls-22" d="M84.62,293.32c-2.84,0-5.68-.13-8.52-.41a1.5,1.5,0,1,1,.29-3,85,85,0,0,0,32.93-3.27,1.5,1.5,0,1,1,.87,2.87A88.35,88.35,0,0,1,84.62,293.32Z"/>
        <path class="cls-23" d="M155.5,262a1.5,1.5,0,0,1-1-2.6,182.82,182.82,0,0,0,16.2-17.23,1.5,1.5,0,0,1,2.31,1.92,186.21,186.21,0,0,1-16.47,17.51A1.53,1.53,0,0,1,155.5,262Z"/>
        <path class="cls-24" d="M291.42,255.39h-.15a1.5,1.5,0,0,1-1.35-1.64c1.73-17.67-2.1-35.18-11.38-52a1.5,1.5,0,0,1,2.63-1.45c9.57,17.39,13.52,35.47,11.74,53.76A1.5,1.5,0,0,1,291.42,255.39Z"/>
        <path class="cls-25" d="M246.63,162.78a1.51,1.51,0,0,1-1-.37c-4.84-4.2-10.07-8.33-15.54-12.25a1.5,1.5,0,0,1,1.75-2.44c5.54,4,10.85,8.16,15.76,12.43a1.5,1.5,0,0,1,.15,2.11A1.48,1.48,0,0,1,246.63,162.78Z"/>
      </g>
    </g>
  </g>
</svg>
