<svg width="88" height="88" viewBox="0 0 88 88" fill="none" xmlns="http://www.w3.org/2000/svg">
<g clip-path="url(#clip0_932_48)">
<path d="M79.2188 0H8.78119C3.93214 0 0 3.93214 0 8.78119V79.2188C0 84.0679 3.93214 88 8.78119 88H79.2188C84.0679 88 88 84.0679 88 79.2188V8.78119C88 3.93214 84.0679 0 79.2188 0ZM44 77.2204C25.6794 77.2204 10.7796 62.3147 10.7796 44C10.7796 25.6853 25.6853 10.7796 44 10.7796C62.3147 10.7796 77.2204 25.6853 77.2204 44C77.2204 62.3147 62.3147 77.2204 44 77.2204Z" fill="#3B5375"/>
<path d="M44.0007 15.0234C28.0194 15.0234 15.0239 28.0248 15.0239 44.0002C15.0239 59.9756 28.0253 72.977 44.0007 72.977C59.9761 72.977 72.9774 59.9756 72.9774 44.0002C72.9774 28.0248 59.9761 15.0234 44.0007 15.0234ZM57.2254 27.5663C58.1129 26.6788 59.5529 26.6788 60.4404 27.5663C61.328 28.4538 61.328 29.8939 60.4404 30.7814C59.5529 31.6689 58.1129 31.6689 57.2254 30.7814C56.3378 29.8939 56.3378 28.4538 57.2254 27.5663ZM42.0846 23.0288C42.0846 21.9708 42.9427 21.1127 44.0007 21.1127C45.0587 21.1127 45.9168 21.9708 45.9168 23.0288V26.526C45.9168 27.584 45.0587 28.4421 44.0007 28.4421C42.9427 28.4421 42.0846 27.584 42.0846 26.526V23.0288ZM27.5668 27.5663C28.4543 26.6788 29.8943 26.6788 30.7819 27.5663C31.6694 28.4538 31.6694 29.8939 30.7819 30.7814C29.8943 31.6689 28.4543 31.6689 27.5668 30.7814C26.6793 29.8939 26.6793 28.4538 27.5668 27.5663ZM23.0293 45.9163C21.9713 45.9163 21.1132 45.0582 21.1132 44.0002C21.1132 42.9422 21.9713 42.0841 23.0293 42.0841H26.5265C27.5844 42.0841 28.4426 42.9422 28.4426 44.0002C28.4426 45.0582 27.5844 45.9163 26.5265 45.9163H23.0293ZM30.776 60.4341C29.8885 61.3216 28.4485 61.3216 27.5609 60.4341C26.6734 59.5465 26.6734 58.1065 27.5609 57.219C28.4485 56.3315 29.8885 56.3315 30.776 57.219C31.6635 58.1065 31.6635 59.5465 30.776 60.4341ZM45.9168 64.9716C45.9168 66.0296 45.0587 66.8877 44.0007 66.8877C42.9427 66.8877 42.0846 66.0296 42.0846 64.9716V61.4744C42.0846 60.4164 42.9427 59.5583 44.0007 59.5583C45.0587 59.5583 45.9168 60.4164 45.9168 61.4744V64.9716ZM54.9977 54.9914C54.6216 55.3675 54.1337 55.5556 53.64 55.5556C53.1463 55.5556 52.6584 55.3675 52.2823 54.9914L42.643 45.3521C42.2844 44.9935 42.0846 44.5057 42.0846 44.0002V33.5145C42.0846 32.4565 42.9427 31.5984 44.0007 31.5984C45.0587 31.5984 45.9168 32.4565 45.9168 33.5145V43.2067L54.9977 52.2818C55.7442 53.0282 55.7442 54.2449 54.9977 54.9914ZM60.4404 60.4341C59.5529 61.3216 58.1129 61.3216 57.2254 60.4341C56.3378 59.5465 56.3378 58.1065 57.2254 57.219C58.1129 56.3315 59.5529 56.3315 60.4404 57.219C61.328 58.1065 61.328 59.5465 60.4404 60.4341ZM66.8941 44.0002C66.8941 45.0582 66.0359 45.9163 64.978 45.9163H61.4808C60.4228 45.9163 59.5647 45.0582 59.5647 44.0002C59.5647 42.9422 60.4228 42.0841 61.4808 42.0841H64.978C66.0359 42.0841 66.8941 42.9422 66.8941 44.0002Z" fill="#3B5375"/>
<path d="M44.0002 10.7793C25.6796 10.7793 10.7798 25.685 10.7798 43.9997C10.7798 62.3144 25.6855 77.2201 44.0002 77.2201C62.3149 77.2201 77.2206 62.3144 77.2206 43.9997C77.2206 25.685 62.3149 10.7793 44.0002 10.7793ZM44.0002 72.9823C28.0189 72.9823 15.0234 59.981 15.0234 44.0056C15.0234 28.0302 28.0248 15.0288 44.0002 15.0288C59.9756 15.0288 72.977 28.0302 72.977 44.0056C72.977 59.981 59.9756 72.9823 44.0002 72.9823Z" fill="white"/>
<path d="M27.5651 57.2242C26.6775 58.1118 26.6775 59.5518 27.5651 60.4393C28.4526 61.3268 29.8926 61.3268 30.7801 60.4393C31.6676 59.5518 31.6676 58.1118 30.7801 57.2242C29.8926 56.3367 28.4526 56.3367 27.5651 57.2242Z" fill="white"/>
<path d="M60.4388 30.7752C61.3263 29.8877 61.3263 28.4477 60.4388 27.5602C59.5513 26.6727 58.1113 26.6727 57.2237 27.5602C56.3362 28.4477 56.3362 29.8877 57.2237 30.7752C58.1113 31.6628 59.5513 31.6628 60.4388 30.7752Z" fill="white"/>
<path d="M30.7757 30.7752C31.6633 29.8877 31.6633 28.4477 30.7757 27.5602C29.8882 26.6727 28.4482 26.6727 27.5607 27.5602C26.6731 28.4477 26.6731 29.8877 27.5607 30.7752C28.4482 31.6628 29.8882 31.6628 30.7757 30.7752Z" fill="white"/>
<path d="M57.2237 57.2242C56.3362 58.1118 56.3362 59.5518 57.2237 60.4393C58.1113 61.3268 59.5513 61.3268 60.4388 60.4393C61.3263 59.5518 61.3263 58.1118 60.4388 57.2242C59.5513 56.3367 58.1113 56.3367 57.2237 57.2242Z" fill="white"/>
<path d="M44.0001 28.4427C45.0581 28.4427 45.9162 27.5846 45.9162 26.5266V23.0294C45.9162 21.9714 45.0581 21.1133 44.0001 21.1133C42.9421 21.1133 42.084 21.9714 42.084 23.0294V26.5266C42.084 27.5846 42.9421 28.4427 44.0001 28.4427Z" fill="#93B4DF"/>
<path d="M44.0001 59.5645C42.9421 59.5645 42.084 60.4226 42.084 61.4806V64.9778C42.084 66.0357 42.9421 66.8939 44.0001 66.8939C45.0581 66.8939 45.9162 66.0357 45.9162 64.9778V61.4806C45.9162 60.4226 45.0581 59.5645 44.0001 59.5645Z" fill="#93B4DF"/>
<path d="M28.4427 44.0001C28.4427 42.9421 27.5846 42.084 26.5266 42.084H23.0294C21.9714 42.084 21.1133 42.9421 21.1133 44.0001C21.1133 45.0581 21.9714 45.9162 23.0294 45.9162H26.5266C27.5846 45.9162 28.4427 45.0581 28.4427 44.0001Z" fill="#93B4DF"/>
<path d="M59.5649 44.0001C59.5649 45.0581 60.4231 45.9162 61.4811 45.9162H64.9783C66.0362 45.9162 66.8944 45.0581 66.8944 44.0001C66.8944 42.9421 66.0362 42.084 64.9783 42.084H61.4811C60.4231 42.084 59.5649 42.9421 59.5649 44.0001Z" fill="#93B4DF"/>
<path d="M45.9162 43.206V33.5138C45.9162 32.4558 45.0581 31.5977 44.0001 31.5977C42.9421 31.5977 42.084 32.4558 42.084 33.5138V43.9995C42.084 44.505 42.2838 44.9928 42.6424 45.3513L52.2817 54.9907C52.6579 55.3668 53.1457 55.5549 53.6394 55.5549C54.1331 55.5549 54.621 55.3668 54.9972 54.9907C55.7436 54.2442 55.7436 53.0275 54.9972 52.2811L45.9162 43.206Z" fill="#93B4DF"/>
</g>
<defs>
<clipPath id="clip0_932_48">
<rect width="88" height="88" fill="white"/>
</clipPath>
</defs>
</svg>
