<svg width="88" height="88" viewBox="0 0 88 88" fill="none" xmlns="http://www.w3.org/2000/svg">
<path d="M79.0689 0H8.76457C3.92403 0 0 3.92403 0 8.76457V79.0689C0 83.9094 3.92403 87.8334 8.76457 87.8334H79.0689C83.9094 87.8334 87.8334 83.9094 87.8334 79.0689V8.76457C87.8334 3.92403 83.9094 0 79.0689 0Z" fill="#3B5375"/>
<path d="M20.9343 71.3036H71.6033C72.8764 71.3036 73.9088 70.2711 73.9088 68.9981C73.9088 67.725 72.8764 66.6925 71.6033 66.6925H66.9981V64.387C66.9981 63.114 65.9656 62.0815 64.6926 62.0815C63.4195 62.0815 62.387 63.114 62.387 64.387V66.6925H56.2448V64.387C56.2448 63.114 55.2123 62.0815 53.9393 62.0815C52.6662 62.0815 51.6337 63.114 51.6337 64.387V66.6925H45.4915V64.387C45.4915 63.114 44.4589 62.0815 43.1859 62.0815C41.9129 62.0815 40.8804 63.114 40.8804 64.387V66.6925H34.7382V64.387C34.7382 63.114 33.7056 62.0815 32.4326 62.0815C31.1596 62.0815 30.127 63.114 30.127 64.387V66.6925H20.9166C19.6436 66.6925 18.6169 65.66 18.6111 64.387V59.7818H20.9166C22.1897 59.7818 23.2222 58.7493 23.2222 57.4762C23.2222 56.2032 22.1897 55.1707 20.9166 55.1707H18.6111V49.0285H20.9166C22.1897 49.0285 23.2222 47.996 23.2222 46.7229C23.2222 45.4499 22.1897 44.4174 20.9166 44.4174H18.6111V38.2751H20.9166C22.1897 38.2751 23.2222 37.2426 23.2222 35.9696C23.2222 34.6966 22.1897 33.6641 20.9166 33.6641H18.6111V27.5218H20.9166C22.1897 27.5218 23.2222 26.4893 23.2222 25.2163C23.2222 23.9433 22.1897 22.9108 20.9166 22.9108H18.6111V18.3055C18.6111 17.0325 17.5786 16 16.3056 16C15.0325 16 14 17.0325 14 18.3055V64.3694C14 68.1826 17.0975 71.2743 20.9108 71.2802L20.9343 71.3036Z" fill="white"/>
<path d="M30.1458 41.3668C30.6679 41.3668 31.1725 41.1908 31.5831 40.8623L41.4858 32.9366L46.9357 38.3866C47.8333 39.2842 49.2941 39.2842 50.1917 38.3866L62.3823 26.196V29.8508C62.3823 31.1239 63.4148 32.1564 64.6878 32.1564C65.9608 32.1564 66.9875 31.1239 66.9875 29.8508V20.6404C66.9875 19.3674 65.955 18.3349 64.6819 18.3349H55.4715C54.1985 18.3349 53.166 19.3674 53.166 20.6404C53.166 21.9134 54.1985 22.946 55.4715 22.946H59.1264L48.5666 33.5057L43.2868 28.2258C42.4596 27.3928 41.1338 27.3224 40.2186 28.0557L28.7026 37.2661C28.157 37.7061 27.8403 38.369 27.8403 39.0671C27.8403 40.3402 28.8727 41.3668 30.1458 41.3668Z" fill="#93B4DF"/>
<path d="M50.5376 50.1371L42.694 46.2124C41.9138 45.8252 40.981 45.9074 40.2829 46.4295L31.0725 53.3402C30.4917 53.7743 30.1514 54.4607 30.1514 55.1823C30.1514 56.4553 31.184 57.482 32.457 57.482C32.9557 57.482 33.4367 57.3236 33.8356 57.0185L41.9079 50.9643L49.8454 54.9359C50.6725 55.3466 51.6698 55.2234 52.3738 54.625L68.4949 40.8035C69.4571 39.9763 69.5686 38.5273 68.7472 37.5652C67.9201 36.5972 66.471 36.4799 65.503 37.307L50.5434 50.1312L50.5376 50.1371Z" fill="white"/>
</svg>
