<svg width="88" height="88" viewBox="0 0 88 88" fill="none" xmlns="http://www.w3.org/2000/svg">
<path d="M79.0688 0H8.76454C3.924 0 0 3.92403 0 8.76457V79.0689C0 83.9094 3.924 87.8334 8.76454 87.8334H79.0688C83.9094 87.8334 87.8334 83.9094 87.8334 79.0689V8.76457C87.8334 3.92403 83.9094 0 79.0688 0Z" fill="#3B5375"/>
<path d="M52.0021 35.6152C52.5301 34.9406 52.7178 34.0782 52.5125 33.251C51.9141 30.793 50.3419 28.7807 48.1889 27.6074C48.7579 26.7627 49.0747 25.7595 49.0747 24.7211C49.0747 21.8759 46.7633 19.5645 43.9181 19.5645C41.0728 19.5645 38.7614 21.8759 38.7614 24.7211C38.7614 25.7654 39.0782 26.7685 39.6531 27.6133C37.5118 28.7925 35.9161 30.8399 35.3236 33.251C35.1183 34.0841 35.306 34.9464 35.834 35.6152C36.362 36.2899 37.154 36.6712 38.0046 36.6712H49.8198C50.6763 36.6712 51.4682 36.284 51.9962 35.6152H52.0021ZM43.9239 22.6209C45.0796 22.6209 46.0182 23.5595 46.0182 24.7211C46.0182 25.8827 45.0796 26.8155 43.9239 26.8155C42.7682 26.8155 41.8296 25.8768 41.8296 24.7211C41.8296 23.5654 42.7682 22.6209 43.9239 22.6209ZM48.9046 33.4153H38.955C38.7144 33.4153 38.5619 33.1572 38.6734 32.946C39.659 30.9983 41.6653 29.7194 43.9298 29.7194C46.1942 29.7194 48.2006 30.9983 49.1862 32.946C49.2976 33.163 49.1451 33.4153 48.9046 33.4153Z" fill="#93B4DF"/>
<path d="M20.1592 61.0817H20.3704V57.8082C20.3704 56.2359 21.6493 54.957 23.2215 54.957H41.8066V61.0817H41.965C42.0295 61.0641 42.0941 61.0582 42.1586 61.0465C42.3287 61.0054 42.4989 60.9761 42.6749 60.9526C42.7922 60.935 42.9036 60.9115 43.021 60.8998C43.3143 60.8646 43.6194 60.847 43.9186 60.847C44.2178 60.847 44.5228 60.8705 44.822 60.8998C44.9335 60.9115 45.0449 60.935 45.1564 60.9526C45.3324 60.9819 45.5143 61.0113 45.6844 61.0523C45.7431 61.0641 45.8076 61.0699 45.8721 61.0875H46.0305V54.9629H64.6215C66.1937 54.9629 67.4726 56.2418 67.4726 57.814V61.0875H67.6779C68.2881 60.935 68.9216 60.847 69.5787 60.847C70.2357 60.847 70.8693 60.935 71.4794 61.0875H71.6906V57.814C71.6906 53.9128 68.5227 50.739 64.6215 50.739H46.0305V47.8703C55.5988 46.8143 62.9202 38.7655 62.9202 29.0094C62.9202 18.5319 54.3962 10.0078 43.9186 10.0078C33.441 10.0078 24.9228 18.5319 24.9228 29.0094C24.9228 38.7655 32.2383 46.8143 41.8066 47.8703V50.739H23.2215C19.3203 50.739 16.1465 53.9128 16.1465 57.814V61.0875H16.3518C16.962 60.935 17.5955 60.847 18.2526 60.847C18.9096 60.847 19.5432 60.935 20.1533 61.0875L20.1592 61.0817ZM29.1467 29.0036C29.1467 20.855 35.7759 14.2258 43.9186 14.2258C52.0613 14.2258 58.6963 20.855 58.6963 29.0036C58.6963 37.1522 52.0672 43.7813 43.9186 43.7813C35.77 43.7813 29.1467 37.1522 29.1467 29.0036Z" fill="white"/>
<path d="M44.8213 60.9005C44.5221 60.8653 44.2229 60.8477 43.9179 60.8477C43.6128 60.8477 43.3136 60.8711 43.0203 60.9005C42.9029 60.9122 42.7915 60.9357 42.6742 60.9533C42.4982 60.9826 42.328 61.0119 42.1579 61.0471C38.6439 61.8508 36.0098 64.9953 36.0098 68.7499C36.0098 73.1087 39.559 76.6579 43.9179 76.6579C48.2767 76.6579 51.8318 73.1087 51.8318 68.7499C51.8318 64.9953 49.2036 61.8508 45.6837 61.0471C45.5077 61.006 45.3317 60.9767 45.1557 60.9474C45.0442 60.9298 44.9327 60.9063 44.8213 60.8946V60.9005ZM47.6548 68.7557C47.6548 70.8149 45.977 72.4868 43.9179 72.4868C41.8587 72.4868 40.1868 70.8149 40.1868 68.7557C40.1868 66.6966 41.8646 65.0187 43.9179 65.0187C45.9711 65.0187 47.6548 66.6966 47.6548 68.7557Z" fill="#93B4DF"/>
<path d="M67.6772 61.0823C64.2336 61.9388 61.6699 65.0422 61.6699 68.7499C61.6699 73.1087 65.2192 76.6579 69.578 76.6579C73.9368 76.6579 77.4919 73.1087 77.4919 68.7499C77.4919 65.0422 74.9282 61.9388 71.4787 61.0823C70.8686 60.9298 70.235 60.8418 69.578 60.8418C68.9209 60.8418 68.2873 60.9298 67.6772 61.0823ZM73.3149 68.7499C73.3149 70.809 71.6371 72.481 69.578 72.481C67.5188 72.481 65.8469 70.809 65.8469 68.7499C65.8469 66.6907 67.5247 65.0129 69.578 65.0129C71.6312 65.0129 73.3149 66.6907 73.3149 68.7499Z" fill="#93B4DF"/>
<path d="M26.1716 68.7499C26.1716 65.0422 23.6079 61.9388 20.1584 61.0823C19.5483 60.9298 18.9147 60.8418 18.2577 60.8418C17.6006 60.8418 16.967 60.9298 16.3569 61.0823C12.9133 61.9388 10.3496 65.0422 10.3496 68.7499C10.3496 73.1087 13.8989 76.6579 18.2577 76.6579C22.6165 76.6579 26.1716 73.1087 26.1716 68.7499ZM14.5266 68.7499C14.5266 66.6907 16.2044 65.0129 18.2577 65.0129C20.311 65.0129 21.9947 66.6907 21.9947 68.7499C21.9947 70.809 20.3168 72.481 18.2577 72.481C16.1985 72.481 14.5266 70.809 14.5266 68.7499Z" fill="#93B4DF"/>
</svg>
