<svg width="88" height="88" viewBox="0 0 88 88" fill="none" xmlns="http://www.w3.org/2000/svg">
<g clip-path="url(#clip0_932_92)">
<path d="M79.2188 0H8.78119C3.93147 0 0 3.93147 0 8.78119V79.2188C0 84.0685 3.93147 88 8.78119 88H79.2188C84.0685 88 88 84.0685 88 79.2188V8.78119C88 3.93147 84.0685 0 79.2188 0Z" fill="#3B5375"/>
<path d="M64.6362 60.0455V66.9223C64.6362 68.1802 63.6017 69.2146 62.3439 69.2146H25.6616C21.8881 69.2146 18.7848 66.1112 18.7848 62.3378V27.9477C18.7848 24.1743 21.8881 21.0709 25.6616 21.0709H30.2461C31.5098 21.0709 32.5384 20.0364 32.5384 18.7786C32.5384 17.5208 31.5098 16.4863 30.2461 16.4863H25.6616C19.3784 16.4863 14.2002 21.6645 14.2002 27.9477V62.3378C14.2002 68.6269 19.3784 73.7992 25.6616 73.7992H62.3439C66.1174 73.7992 69.2208 70.6958 69.2208 66.9223V60.0455H64.6362Z" fill="white"/>
<path d="M71.5129 41.709H55.467C50.4357 41.709 46.2979 45.8468 46.2979 50.8781C46.2979 55.9094 50.4357 60.0472 55.467 60.0472H71.5129C72.7707 60.0472 73.8052 59.0128 73.8052 57.7549V44.0013C73.8052 42.7434 72.7707 41.709 71.5129 41.709ZM69.2206 55.4627H55.467C52.9513 55.4627 50.8824 53.3937 50.8824 50.8781C50.8824 48.3625 52.9513 46.2935 55.467 46.2935H69.2206V55.4627Z" fill="#93B4DF"/>
<path d="M67.2048 27.6782C65.9176 26.3851 64.166 25.6621 62.344 25.6562H25.2678L24.8388 25.8208C22.282 26.9376 23.1284 30.2408 25.6616 30.2408H62.344C63.6018 30.2408 64.6362 31.2753 64.6362 32.539V34.8312C64.6362 36.0891 65.6707 37.1235 66.9285 37.1235C68.1863 37.1235 69.2208 36.0891 69.2208 34.8312V32.539C69.2208 30.711 68.492 28.9654 67.2048 27.6782Z" fill="white"/>
<path d="M61.609 25.6564H56.66L54.1797 19.4437L38.0221 25.6564H25.2676L54.6381 14.3596C55.8019 13.907 57.1303 14.483 57.6005 15.6409L61.609 25.6564Z" fill="#93B4DF"/>
</g>
<defs>
<clipPath id="clip0_932_92">
<rect width="88" height="88" fill="white"/>
</clipPath>
</defs>
</svg>
