<svg width="88" height="88" viewBox="0 0 88 88" fill="none" xmlns="http://www.w3.org/2000/svg">
<path d="M79.0689 0H8.76457C3.92403 0 0 3.92403 0 8.76457V79.0689C0 83.9094 3.92403 87.8334 8.76457 87.8334H79.0689C83.9094 87.8334 87.8334 83.9094 87.8334 79.0689V8.76457C87.8334 3.92403 83.9094 0 79.0689 0Z" fill="#3B5375"/>
<path d="M46.0658 10.7833C45.3559 10.7364 44.6402 10.7129 43.9186 10.7129C43.197 10.7129 42.4813 10.7364 41.7715 10.7833V28.9108C42.4755 28.8111 43.1912 28.7583 43.9186 28.7583C44.6461 28.7583 45.3677 28.8111 46.0658 28.9108C52.7125 29.8553 57.9806 35.1293 58.9193 41.7702C59.019 42.4683 59.0718 43.184 59.0718 43.9115C59.0718 44.6389 59.019 45.3547 58.9193 46.0586H77.0527C77.0996 45.3488 77.1231 44.6331 77.1231 43.9115C77.1231 43.1899 77.0996 42.4801 77.0527 41.7702C75.9908 25.168 62.668 11.8451 46.0658 10.7833ZM63.1725 41.7702C62.1811 32.8003 55.0415 25.6608 46.0658 24.6635V15.101C60.2862 16.157 71.679 27.5498 72.7291 41.7702H63.1725Z" fill="#93B4DF"/>
<path d="M65.8112 62.7312L59.0412 56.0023C61.2764 53.2098 62.7547 49.7955 63.1712 46.0585H58.918C57.8738 53.4034 51.5497 59.0705 43.9174 59.0705C35.5634 59.0705 28.7641 52.2712 28.7641 43.9114C28.7641 36.2849 34.4312 29.955 41.7702 28.9107V24.6634C32.1022 25.7369 24.552 33.9618 24.552 43.9114C24.552 54.5943 33.2403 63.2826 43.9174 63.2826C48.4874 63.2826 52.6878 61.6987 56.0024 59.0411L62.7841 65.7759C57.7213 70.1464 51.1156 72.7981 43.9174 72.7981C27.9898 72.7981 15.0306 59.839 15.0306 43.9114C15.0306 27.9838 26.8399 16.2097 41.7702 15.101V10.7832C24.4581 11.892 10.7129 26.3295 10.7129 43.9114C10.7129 61.4933 25.608 77.1159 43.9174 77.1159C62.2267 77.1159 75.9426 63.3706 77.0514 46.0585H72.7278C72.2585 52.4061 69.73 58.1846 65.8112 62.7312Z" fill="white"/>
</svg>
