<svg width="88" height="88" viewBox="0 0 88 88" fill="none" xmlns="http://www.w3.org/2000/svg">
<path d="M79.0689 0H8.76457C3.92403 0 0 3.92403 0 8.76457V79.0689C0 83.9094 3.92403 87.8334 8.76457 87.8334H79.0689C83.9094 87.8334 87.8334 83.9094 87.8334 79.0689V8.76457C87.8334 3.92403 83.9094 0 79.0689 0Z" fill="#3B5375"/>
<path d="M65.6357 70.6911H60.7372C59.5639 70.6911 58.6135 71.6414 58.6135 72.8147C58.6135 73.988 59.5639 74.9384 60.7372 74.9384H65.6357C68.9914 74.9384 71.7193 72.2105 71.7193 68.8549V38.4604L72.1241 38.8007C72.4526 39.0764 72.8222 39.2524 73.1918 39.317C73.8195 39.4167 74.4472 39.2466 74.9283 38.8418C75.4035 38.437 75.6792 37.8503 75.6792 37.2285C75.6792 36.5949 75.4035 35.9965 74.9107 35.5859L64.8027 27.1674V20.4679C64.8027 19.4295 64.0928 18.5319 63.119 18.3324C62.4795 18.2034 61.8283 18.3618 61.3355 18.7666C60.8428 19.1713 60.5553 19.7697 60.5553 20.4092V23.6182L47.7839 12.9822C45.5312 11.1049 42.2576 11.1049 39.999 12.9822L12.8664 35.58C11.9688 36.3309 11.8457 37.6743 12.5907 38.5778C12.9544 39.0178 13.4648 39.2876 14.0339 39.3346C14.6029 39.3873 15.1544 39.2114 15.5885 38.8476L42.7211 16.2381C43.4016 15.669 44.3872 15.669 45.0618 16.2381L67.4778 34.9112V68.8549C67.4778 69.8639 66.6565 70.6911 65.6416 70.6911H65.6357Z" fill="white"/>
<path d="M18.2879 43.0136C17.7013 42.9901 17.138 43.1896 16.7157 43.5944C16.2874 43.9991 16.0527 44.5447 16.0527 45.1314V68.8614C16.0527 72.2171 18.7807 74.945 22.1363 74.945H27.029C28.2023 74.945 29.1527 73.9946 29.1527 72.8213C29.1527 71.648 28.2023 70.6977 27.029 70.6977H22.1305C21.1214 70.6977 20.2942 69.8763 20.2942 68.8614V45.2428C20.2942 44.0695 19.3908 43.0722 18.2879 43.0136Z" fill="white"/>
<path d="M41.9069 61.0931C43.0802 61.0931 44.0306 60.1427 44.0306 58.9694C44.0306 57.7961 43.0802 56.8457 41.9069 56.8457C40.7336 56.8457 39.7832 57.7961 39.7832 58.9694C39.7832 60.1427 40.7336 61.0931 41.9069 61.0931Z" fill="#93B4DF"/>
<path d="M37.9527 43.0078C34.6029 43.0078 31.875 45.7358 31.875 49.0855V68.8615C31.875 72.2113 34.6029 74.9392 37.9527 74.9392H49.8207C53.1705 74.9392 55.8984 72.2113 55.8984 68.8615V49.0855C55.8984 45.7358 53.1705 43.0078 49.8207 43.0078H37.9527ZM51.651 49.0855V68.8615C51.651 69.8412 50.8884 70.645 49.9263 70.6919H37.8647C36.8909 70.645 36.1282 69.8412 36.1282 68.8615V49.0855C36.1282 48.1058 36.8909 47.3021 37.8589 47.2552H49.9204C50.8942 47.3021 51.6569 48.1 51.6569 49.0855H51.651Z" fill="#93B4DF"/>
</svg>
