<svg width="88" height="88" viewBox="0 0 88 88" fill="none" xmlns="http://www.w3.org/2000/svg">
<path d="M79.0689 0H8.76457C3.92403 0 0 3.92403 0 8.76457V79.0689C0 83.9094 3.92403 87.8334 8.76457 87.8334H79.0689C83.9094 87.8334 87.8334 83.9094 87.8334 79.0689V8.76457C87.8334 3.92403 83.9094 0 79.0689 0Z" fill="#3B5375"/>
<path d="M40.2317 63.3359H22.6028C20.7314 63.3359 19.2179 61.8223 19.2179 59.945V32.6657H64.6129C65.8097 32.6657 66.7777 31.6978 66.7777 30.501V25.1918C66.7718 21.0735 63.422 17.7237 59.3037 17.7178H57.2153C56.8809 15.4182 54.898 13.6406 52.5103 13.6406C50.1227 13.6406 48.1339 15.4182 47.7937 17.7178H34.1129C33.7903 15.4182 31.8015 13.6406 29.408 13.6406C27.0145 13.6406 25.0316 15.4182 24.6972 17.7178H22.6028C18.4904 17.7237 15.1348 21.0735 15.1289 25.1918V59.945C15.1348 64.0633 18.4904 67.4131 22.6028 67.4131H40.2317C41.364 67.4131 42.2791 66.4979 42.2791 65.3774C42.2791 64.2569 41.364 63.3359 40.2317 63.3359ZM50.9616 18.2106C50.9616 17.36 51.6538 16.6677 52.5103 16.6677C53.3668 16.6677 54.0532 17.36 54.0532 18.2106V21.3081C54.0532 22.1588 53.361 22.851 52.5103 22.851C51.6597 22.851 50.9616 22.1588 50.9616 21.3081V18.2106ZM27.8592 18.2106C27.8592 17.36 28.5515 16.6677 29.4021 16.6677C30.2528 16.6677 30.9509 17.36 30.9509 18.2106V21.3081C30.9509 22.1588 30.2586 22.851 29.4021 22.851C28.5456 22.851 27.8592 22.1588 27.8592 21.3081V18.2106ZM19.2179 25.1918C19.2179 23.3262 20.7432 21.7951 22.6146 21.7951H24.6972C25.0316 24.1006 27.0145 25.8723 29.408 25.8723C31.8015 25.8723 33.7844 24.1006 34.1129 21.7951H47.7995C48.1339 24.1006 50.1168 25.8723 52.5103 25.8723C54.9039 25.8723 56.8809 24.1006 57.2153 21.7951H59.3037C61.1752 21.7951 62.7005 23.3262 62.7005 25.1918V28.5885H19.2179V25.1918Z" fill="white"/>
<path d="M62.702 44.8613C54.3657 44.8613 47.5781 51.643 47.5781 59.9852C47.5781 68.3274 54.3657 75.1149 62.702 75.1149C71.0383 75.1149 77.8317 68.3332 77.8317 59.9852C77.8259 51.6547 71.0383 44.8731 62.702 44.8613ZM62.702 71.1667C56.5422 71.1667 51.5263 66.1509 51.5263 59.9852C51.5263 53.8195 56.5422 48.8095 62.702 48.8095C68.8618 48.8095 73.8836 53.8253 73.8836 59.9852C73.8777 66.145 68.856 71.155 62.702 71.1667Z" fill="#93B4DF"/>
<path d="M64.6767 59.1637V53.4086C64.6767 52.3116 63.7908 51.4375 62.6997 51.4375C61.6085 51.4375 60.7344 52.3175 60.7344 53.4086V59.9791C60.7344 60.5071 60.9397 60.9999 61.3152 61.3753L63.9434 64.0094C64.3247 64.379 64.8116 64.5785 65.3279 64.5785C65.8441 64.5785 66.3721 64.3614 66.7476 63.9742C67.4926 63.2116 67.4926 62.0089 66.7476 61.2287L64.6884 59.1696L64.6767 59.1637Z" fill="white"/>
<path d="M39.6995 39.3187C38.8371 40.181 38.8371 41.5714 39.6995 42.4338C40.5619 43.2962 41.9523 43.2962 42.8146 42.4338C43.677 41.5714 43.677 40.181 42.8146 39.3187C41.9523 38.4563 40.5619 38.4563 39.6995 39.3187Z" fill="white"/>
<path d="M29.9435 42.4338C30.8059 41.5714 30.8059 40.181 29.9435 39.3187C29.0812 38.4563 27.6908 38.4563 26.8284 39.3187C25.966 40.181 25.966 41.5714 26.8284 42.4338C27.6908 43.2962 29.0812 43.2962 29.9435 42.4338Z" fill="#93B4DF"/>
<path d="M52.5648 39.3187C51.7024 40.181 51.7024 41.5714 52.5648 42.4338C53.4271 43.2962 54.8175 43.2962 55.6799 42.4338C56.5423 41.5714 56.5423 40.181 55.6799 39.3187C54.8175 38.4563 53.4271 38.4563 52.5648 39.3187Z" fill="white"/>
<path d="M39.7855 51.7835C38.9231 52.6459 38.9231 54.0362 39.7855 54.8986C40.6478 55.761 42.0382 55.761 42.9006 54.8986C43.7629 54.0362 43.7629 52.6459 42.9006 51.7835C42.0382 50.9211 40.6478 50.9211 39.7855 51.7835Z" fill="white"/>
<path d="M30.0314 54.8986C30.8938 54.0362 30.8938 52.6459 30.0314 51.7835C29.1691 50.9211 27.7787 50.9211 26.9163 51.7835C26.0539 52.6459 26.0539 54.0362 26.9163 54.8986C27.7787 55.761 29.1691 55.761 30.0314 54.8986Z" fill="white"/>
</svg>
