<svg width="88" height="88" viewBox="0 0 88 88" fill="none" xmlns="http://www.w3.org/2000/svg">
<path d="M79.0689 0H8.76457C3.92403 0 0 3.92403 0 8.76457V79.0689C0 83.9094 3.92403 87.8334 8.76457 87.8334H79.0689C83.9094 87.8334 87.8334 83.9094 87.8334 79.0689V8.76457C87.8334 3.92403 83.9094 0 79.0689 0Z" fill="#3B5375"/>
<path d="M64.5669 24.9973C64.3264 24.0939 63.5051 23.4603 62.5723 23.4603H51.8249C53.9661 20.5446 54.3064 16.7255 52.699 13.4285C51.0564 10.0553 47.7066 7.96094 43.9637 7.96094C40.2209 7.96094 36.8711 10.0553 35.2285 13.4285C33.6211 16.7255 33.9613 20.5387 36.1026 23.4603H24.5808C23.6304 23.4603 22.8032 24.1056 22.5744 25.0266L13.0883 63.2821C12.9709 63.7573 13.0237 64.256 13.2408 64.696L17.1596 72.6392C17.5116 73.3491 18.2215 73.7891 19.0135 73.7891H68.9316C69.7295 73.7891 70.4686 73.3197 70.803 72.5982L74.5576 64.5611L74.5869 64.4965C74.806 64.0389 74.19 61.1311 72.739 55.773C71.2372 50.2291 68.7263 40.9542 64.5669 25.0031V24.9973ZM43.9579 12.0968C47.0554 12.0968 49.5721 14.6136 49.5721 17.7111C49.5721 20.8086 47.0554 23.3253 43.9579 23.3253C40.8603 23.3253 38.3436 20.8086 38.3436 17.7111C38.3436 14.6136 40.8603 12.0968 43.9579 12.0968ZM67.6058 69.6591H20.2865L17.2711 63.5461L26.1882 27.5962H60.9707L70.4862 63.4875L67.6058 69.6532V69.6591Z" fill="white"/>
<path d="M48.2597 47.6424C47.1216 46.7565 45.8309 46.2461 44.687 45.7944C43.4081 45.2899 42.3052 44.8499 41.8652 44.0579C41.4956 43.395 41.8182 42.4036 42.5691 41.9049C43.5254 41.2655 45.4144 41.5119 46.1242 42.1689C46.529 42.5444 47.0629 42.738 47.6085 42.7145C48.1599 42.691 48.6703 42.4564 49.0458 42.0516C49.8202 41.2127 49.7673 39.9044 48.9284 39.1301C48.1365 38.4026 47.104 37.8746 45.9248 37.5989V37.0416C45.9248 35.9035 44.9979 34.9766 43.8598 34.9766C42.7217 34.9766 41.7948 35.9035 41.7948 37.0416V37.7456C40.0642 38.3088 38.6914 39.5818 38.0167 41.2479C37.3656 42.8612 37.4535 44.6153 38.2572 46.0643C39.4188 48.1586 41.4193 48.9506 43.2086 49.6546C44.8688 50.3116 46.9338 51.1271 46.7285 52.934C46.6288 53.8081 45.9835 54.6705 45.1093 55.0811C43.9008 55.6502 41.6833 55.3451 40.2636 54.4123C39.8001 54.1073 39.2487 54.0075 38.709 54.119C38.1693 54.2305 37.7058 54.5473 37.4007 55.0107C36.7789 55.967 37.0429 57.2459 37.9991 57.8736C39.061 58.5658 40.4044 59.0821 41.7889 59.3343V60.0266C41.7889 61.1647 42.7158 62.0916 43.8539 62.0916C44.992 62.0916 45.9189 61.1647 45.9189 60.0266V59.1759C48.5647 58.3898 50.53 56.0784 50.8351 53.3916C51.0814 51.2033 50.1428 49.109 48.2655 47.6424H48.2597Z" fill="#93B4DF"/>
</svg>
