<svg width="88" height="88" viewBox="0 0 88 88" fill="none" xmlns="http://www.w3.org/2000/svg">
<path d="M79.0689 0H8.76457C3.92403 0 0 3.92403 0 8.76457V79.0689C0 83.9094 3.92403 87.8334 8.76457 87.8334H79.0689C83.9094 87.8334 87.8334 83.9094 87.8334 79.0689V8.76457C87.8334 3.92403 83.9094 0 79.0689 0Z" fill="#3B5375"/>
<path d="M72.0888 28.8096L68.7742 32.1241C70.5166 35.7907 71.4435 39.8152 71.4435 43.9217C71.4435 59.0984 59.1003 71.4415 43.9236 71.4415C28.747 71.4415 16.4038 59.0984 16.4038 43.9217C16.4038 28.7451 28.747 16.4019 43.9236 16.4019C48.0302 16.4019 52.0488 17.3288 55.7212 19.0712L59.0358 15.7566C54.4071 13.2692 49.2211 11.9609 43.9236 11.9609C26.3006 11.9609 11.9629 26.2987 11.9629 43.9217C11.9629 61.5447 26.3006 75.8825 43.9236 75.8825C61.5466 75.8825 75.8844 61.5447 75.8844 43.9217C75.8844 38.6243 74.5762 33.4383 72.0888 28.8096Z" fill="white"/>
<path d="M61.2774 41.6988C60.0513 41.6988 59.054 42.6962 59.054 43.9223C59.054 52.2645 52.2664 59.0579 43.9183 59.0579C35.5703 59.0579 28.7828 52.2703 28.7828 43.9223C28.7828 35.5742 35.5703 28.7866 43.9183 28.7866C45.1444 28.7866 46.1418 27.7893 46.1418 26.5632C46.1418 25.3371 45.1444 24.3398 43.9183 24.3398C33.124 24.3398 24.3418 33.122 24.3418 43.9164C24.3418 54.7108 33.124 63.4929 43.9183 63.4929C54.7127 63.4929 63.4949 54.7108 63.4949 43.9164C63.4949 42.6903 62.4976 41.693 61.2715 41.693L61.2774 41.6988Z" fill="#93B4DF"/>
<path d="M52.259 22.5224C51.8424 22.9389 51.6078 23.5021 51.6078 24.0946V33.088L42.3445 42.3512C41.4763 43.2195 41.4763 44.6275 42.3445 45.4957C42.7787 45.9298 43.3477 46.1469 43.9168 46.1469C44.4858 46.1469 45.0549 45.9298 45.489 45.4957L54.7522 36.2325H63.7456C64.3323 36.2325 64.9013 35.9978 65.3178 35.5813L68.7732 32.1259L72.0878 28.8113L75.2322 25.6669C75.8658 25.0333 76.0594 24.0771 75.7133 23.244C75.3671 22.411 74.5576 21.8712 73.66 21.8712H65.969V14.1802C65.969 13.2827 65.4293 12.4731 64.5962 12.127C63.7632 11.7808 62.8128 11.9744 62.1734 12.608L59.0289 15.7525L55.7143 19.067L52.259 22.5224ZM63.7456 26.3122H68.2922L62.8246 31.7798H56.0546V25.0098L61.5222 19.5422V24.0888C61.5222 25.3149 62.5195 26.3122 63.7456 26.3122Z" fill="#93B4DF"/>
</svg>
